<svg width="714" height="502" viewBox="0 0 714 502" fill="none" xmlns="http://www.w3.org/2000/svg">
<path fill-rule="evenodd" clip-rule="evenodd" d="M309.262 20.8464C309.262 20.8464 311.321 62.6383 307.12 80.0886L294.728 79.6497L309.262 20.8464Z" fill="#2C1C28"/>
<path fill-rule="evenodd" clip-rule="evenodd" d="M356.838 94.7017L351.493 106.583C351.389 106.656 346.159 117.748 346.143 117.831C345.777 118.62 349.748 120.057 354.978 120.997C360.208 121.938 364.732 122.037 365.103 121.248C365.171 121.123 369.795 108.96 369.643 108.798L374.476 94.9577C376.038 93.5314 377.564 92.0476 379.053 90.5167C379.685 89.9995 380.265 89.5188 380.903 89.0068C383.123 87.1573 385.349 85.3078 387.527 83.453C391.895 79.6965 396.252 75.9818 400.584 72.173C401.252 71.708 401.399 70.6527 400.861 69.8846C400.296 69.0174 399.121 68.8084 398.254 69.3674C395.897 70.9661 393.504 72.5179 391.101 74.1061L393.943 66.0707C394.241 65.1772 393.839 64.1637 392.971 63.7352C392.015 63.2911 390.902 63.7248 390.469 64.6339L385.192 76.1908L383.431 68.7195C383.233 67.8314 382.36 67.1783 381.399 67.2723C380.343 67.3977 379.638 68.3068 379.727 69.3099L380.882 79.639L374.999 81.8177C375.009 81.7759 375.051 81.7811 375.056 81.7393C376.362 79.9943 377.439 78.2545 378.499 76.3736C378.896 75.6788 378.792 74.7592 378.18 74.1584C377.465 73.4008 376.247 73.406 375.49 74.1218L375.432 74.2002C374.069 75.5273 372.574 76.8334 371.112 77.9672C370.375 78.5523 369.612 79.0487 368.854 79.498C368.494 79.7488 368.107 79.9055 367.752 80.1093C367.365 80.266 367.125 80.3548 366.53 80.6526C364.361 81.7028 362.251 83.1657 360.443 85.2242C358.63 87.2827 357.261 90.1406 356.958 93.3224" fill="#CC7544"/>
<path fill-rule="evenodd" clip-rule="evenodd" d="M356.059 133.944C357.752 140.914 353.489 147.92 346.519 149.618C341.786 150.768 336.974 149.158 333.912 145.757L295.098 107.21C292.533 105.282 290.574 102.476 289.748 99.0802C287.867 91.3373 292.606 83.4847 300.396 81.5881C306.807 80.0312 313.223 82.9831 316.321 88.4219L351.195 126.515C353.51 128.317 355.307 130.846 356.059 133.944Z" fill="#A8B3BC"/>
<path fill-rule="evenodd" clip-rule="evenodd" d="M367.35 121.029L367.48 121.055L355.897 141.645C353.442 146.781 347.804 149.858 341.922 148.798C334.863 147.528 330.182 140.788 331.451 133.73C331.869 131.42 332.862 129.393 334.288 127.716L341.681 116.405C341.655 116.311 341.671 116.222 341.686 116.133C342.151 115.046 348.337 115.172 355.485 116.457C362.632 117.742 368.045 119.665 367.527 120.788C367.512 120.877 367.454 120.956 367.35 121.029Z" fill="#A8B3BC"/>
<path d="M334.121 127.91L341.692 116.363" stroke="#1C4192" stroke-width="1.00325" stroke-miterlimit="10" stroke-linecap="round" stroke-linejoin="round"/>
<path d="M360.955 90.5848C360.955 90.5848 361.791 85.6945 368.087 83.9495C372.585 82.6903 380.84 80.0833 380.84 80.0833" stroke="#2A1C28" stroke-width="1.00325" stroke-miterlimit="10" stroke-linecap="round" stroke-linejoin="round"/>
<path d="M385.093 76.4885C387.167 71.9587 390.506 64.686 390.506 64.686C390.95 63.7299 392.052 63.3433 393.008 63.7874C393.886 64.1688 394.33 65.1928 393.98 66.1228L388.327 82.0214C388.243 82.2304 388.118 82.4341 387.993 82.6379L387.872 82.7946C386.483 84.2523 384.236 86.0078 382.125 87.4707" stroke="#2A1C28" stroke-width="1.00325" stroke-miterlimit="10" stroke-linecap="round" stroke-linejoin="round"/>
<path d="M380.835 80.3969L379.712 69.399C379.581 68.3854 380.333 67.4398 381.383 67.3614C382.345 67.2674 383.228 67.8734 383.416 68.8086L386.253 80.7939C386.404 81.4522 386.242 82.0949 385.882 82.6173L385.694 82.8995C385.203 83.6205 384.743 84.1691 384.278 84.7594C383.813 85.3498 383.343 85.9402 382.836 86.5254C381.869 87.6539 380.856 88.7772 379.842 89.9005" stroke="#2A1C28" stroke-width="1.00325" stroke-miterlimit="10" stroke-linecap="round" stroke-linejoin="round"/>
<path fill-rule="evenodd" clip-rule="evenodd" d="M294.372 298.4C289.252 311.043 277.131 332.987 279.743 357.699C281.415 373.217 288.364 437.898 283.975 450.385C279.796 473.791 300.172 462.819 303.202 463.498C324.675 468.148 343.17 467.469 343.17 467.469C343.17 467.469 321.175 458.378 312.606 445.212C306.755 436.173 308.531 422.224 308.688 414.543C308.949 401.377 312.345 325.359 312.345 325.359L317.831 294.481C317.831 294.481 300.433 283.301 294.372 298.4Z" fill="#B15152"/>
<path fill-rule="evenodd" clip-rule="evenodd" d="M287.267 314.962C294.895 315.328 303.568 316.947 313.286 320.134L312.345 325.359C312.345 325.359 311.457 345.056 310.569 366.111C304.404 372.903 295.417 379.068 282.251 383.3C281.206 372.067 280.214 362.506 279.691 357.699C278.019 341.712 282.512 326.874 287.267 314.962Z" fill="black"/>
<path fill-rule="evenodd" clip-rule="evenodd" d="M290.611 458.483C290.611 458.483 285.699 458.065 294.634 460.834C325.825 470.447 332.721 464.804 332.721 464.804C332.721 464.804 338.625 468.827 347.664 469.716C357.956 470.761 355.292 475.828 355.292 475.828C355.292 475.828 342.909 477.605 331.572 477.814C313.494 478.18 305.501 474.47 294.634 474.888C286.379 475.201 281.781 473.112 281.781 473.112C279.43 463.916 290.611 458.483 290.611 458.483Z" fill="black"/>
<path fill-rule="evenodd" clip-rule="evenodd" d="M284.602 447.511C284.602 447.511 285.751 453.624 294.686 456.602C325.929 466.999 332.355 461.983 332.355 461.983C332.355 461.983 338.102 465.693 345.992 466.633C356.284 467.887 355.291 473.164 355.291 473.164C355.291 473.164 342.909 474.627 331.572 474.575C313.494 474.523 305.501 470.656 294.633 470.761C286.378 470.865 281.781 468.671 281.781 468.671C279.43 459.423 284.602 447.511 284.602 447.511Z" fill="#783140"/>
<path fill-rule="evenodd" clip-rule="evenodd" d="M236.797 442.391C236.431 440.562 243.693 465.431 249.388 473.686C250.799 475.672 248.448 478.075 248.448 478.075C248.448 478.075 237.476 473.895 224.728 466.006C213.913 459.371 222.011 444.272 220.548 426.926C219.921 419.559 221.854 415.85 221.854 415.85L226.974 413.342L236.797 442.391Z" fill="black"/>
<path fill-rule="evenodd" clip-rule="evenodd" d="M240.35 439.883C240.088 438.002 244.79 462.558 249.963 470.813C251.217 472.851 249.754 475.568 249.754 475.568C249.754 475.568 239.043 471.388 226.765 463.499C216.368 456.863 225.355 441.764 224.989 424.418C224.78 417.052 226.974 413.342 226.974 413.342L246.985 403.572L240.35 439.883Z" fill="#783140"/>
<path fill-rule="evenodd" clip-rule="evenodd" d="M300.485 317.47C259.524 344.899 253.986 379.748 246.828 393.593C241.342 404.199 238.886 407.856 238.886 407.804C238.886 407.804 230.945 419.089 230.684 433.196C230.318 450.855 232.774 451.952 240.245 456.706C244.163 459.214 245.417 459.841 245.417 459.841C245.417 459.841 244.842 458.431 244.947 449.183C252.209 426.822 266.368 399.549 282.669 381.106C309.628 350.594 339.095 315.798 339.095 315.798C339.095 315.798 316.995 306.341 300.485 317.47Z" fill="#B15152"/>
<path fill-rule="evenodd" clip-rule="evenodd" d="M285.908 328.755C290.193 324.889 294.999 321.075 300.485 317.418C312.345 309.424 327.079 312.089 334.445 314.178C335.438 315.485 336.117 317 336.483 318.828C334.707 320.918 332.094 324.001 328.855 327.815C316.943 331.054 294.634 335.756 285.908 328.755Z" fill="black"/>
<path fill-rule="evenodd" clip-rule="evenodd" d="M297.246 154.2C297.246 154.2 272.011 185.548 267.1 207.961C262.92 226.979 282.094 282.935 284.027 300.333C286.013 317.731 285.177 321.441 285.177 321.441C285.229 321.441 290.819 324.784 312.502 324.21C340.192 323.478 343.588 320.657 343.588 320.657L328.959 205.192L332.303 174.942L297.246 154.2Z" fill="#5A74C7"/>
<path d="M309.263 323.948C309.263 323.948 294.216 246.78 289.148 220.396C284.602 196.781 301.478 171.389 301.112 171.598" stroke="#1C4192" stroke-width="1.18378" stroke-miterlimit="10" stroke-linecap="round" stroke-linejoin="round"/>
<path fill-rule="evenodd" clip-rule="evenodd" d="M249.388 96.7288C249.388 88.5784 255.606 81.8909 263.547 81.0549C263.704 81.0027 263.756 80.9504 263.756 80.9504L298.448 81.2639C299.388 81.1072 300.328 81.0027 301.269 81.0027C309.994 81.0027 317.047 88.0559 317.047 96.7811C317.047 97.3035 316.995 97.8783 316.943 98.4007C322.22 104.357 327.444 110.47 330.37 114.284C332.721 120.762 326.713 130.376 326.713 130.376L332.303 174.942C331.154 174.106 320.443 174.628 307.225 174.628C293.38 174.628 282.147 175.36 281.885 176.248C281.833 176.248 281.833 176.248 281.833 176.248L282.774 166.008C282.774 166.008 268.667 134.346 256.494 109.947C252.262 107.126 249.44 102.267 249.388 96.7288Z" fill="#D3D8DC"/>
<path fill-rule="evenodd" clip-rule="evenodd" d="M312.397 100.7C310.569 94.0645 307.695 90.8252 307.695 90.8252L274.937 84.9214L314.487 114.859C314.487 114.859 314.957 110.156 312.397 100.7Z" fill="#5A74C7"/>
<path fill-rule="evenodd" clip-rule="evenodd" d="M293.421 169.868C294.557 170.803 296.759 173.225 292.788 178.175C288.817 183.124 280.926 189.27 278.976 187.876C277.754 186.999 280.131 182.116 284.102 177.167C288.117 172.188 292.286 168.932 293.421 169.868Z" fill="#2A1C28"/>
<path fill-rule="evenodd" clip-rule="evenodd" d="M281.244 186.66C281.244 186.66 298.099 194.635 302.942 197.795C307.291 200.596 313.735 202.298 317.988 201.128C321.085 200.299 331.139 194.837 331.139 194.837C331.139 194.837 341.948 194.601 338.51 186.52C320.763 184.695 313.8 183.343 313.8 183.343L294.456 170.934C289.477 174.484 281.244 186.66 281.244 186.66Z" fill="#CC7544"/>
<path fill-rule="evenodd" clip-rule="evenodd" d="M294.485 170.977C295.49 171.812 293.312 176.056 289.612 180.381C285.913 184.706 282.103 187.466 281.099 186.632C280.065 185.754 282.229 181.582 285.928 177.257C289.628 172.933 293.451 170.099 294.485 170.977Z" fill="#CC7544"/>
<path fill-rule="evenodd" clip-rule="evenodd" d="M312.931 185.884L335.421 185.958L336.161 186.215C336.451 186.271 336.698 186.357 336.974 186.485C337.497 186.7 338.02 186.914 338.529 187.201C339.561 187.702 340.521 188.378 341.351 189.141C342.225 189.875 342.998 190.74 343.612 191.65L343.845 191.996L344.021 192.256L344.372 192.775L345.001 193.801L354.143 206.225C354.83 207.337 354.665 208.772 353.582 209.503C352.485 210.306 350.774 210.012 349.869 208.858L339.86 197.018L339.072 196.037L338.678 195.547L338.503 195.287L338.343 195.143C337.934 194.725 337.555 194.351 337.119 194.078C336.683 193.805 336.247 193.532 335.753 193.361C335.477 193.232 335.259 193.19 335.012 193.104C334.867 193.076 334.795 193.062 334.65 193.034L334.215 192.95L321.218 195.734C311.978 189.049 302.258 187.162 312.931 185.884Z" fill="#CC7544"/>
<path d="M359.934 205.279C359.042 206.385 357.289 206.497 356.067 205.62L343.692 195.504L342.673 194.742L342.178 194.382L341.916 194.181L341.713 194.066C341.276 193.793 340.724 193.536 340.231 193.365C339.708 193.15 339.2 193.052 338.649 192.982C338.388 192.969 338.127 192.956 337.866 192.943C337.75 192.959 337.605 192.93 337.49 192.946L337.026 193.006L312.895 199.839C302.194 196.22 301.188 184.923 306.361 185.024L336.405 185.735L337.231 185.745C337.521 185.801 337.825 185.785 338.115 185.841C338.71 185.882 339.29 185.994 339.87 186.107C340.988 186.361 342.149 186.775 343.181 187.276C344.242 187.821 345.216 188.424 346.09 189.158L346.41 189.446L346.629 189.676L347.11 190.108L348.042 190.929L359.697 201.846C360.731 202.724 360.899 204.187 359.934 205.279Z" fill="#CC7544"/>
<path fill-rule="evenodd" clip-rule="evenodd" d="M316.106 186.199L334.273 185.472L334.942 185.903C335.175 186.061 335.408 186.219 335.64 186.377C336.092 186.766 336.514 187.111 336.966 187.5C337.796 188.263 338.526 189.157 339.169 190.11C339.812 191.063 340.296 192.06 340.693 193.116L340.811 193.477L340.9 193.795L341.091 194.359L341.402 195.473L344.941 206.133C345.368 207.42 344.811 208.742 343.596 209.184C342.295 209.684 340.74 208.968 340.138 207.609L335.601 197.246L335.102 196.133L334.838 195.555L334.706 195.265L334.632 195.063C334.354 194.557 334.062 194.124 333.726 193.721C333.391 193.317 332.968 192.971 332.575 192.669C332.372 192.555 332.139 192.397 331.936 192.282C331.834 192.224 331.732 192.167 331.63 192.11L331.253 191.923L317.961 191.376C310.723 182.521 305.403 184.725 316.106 186.199Z" fill="#CC7544"/>
<path d="M322.706 184.959C322.706 184.959 332.317 185.469 336.472 187.329C339.799 188.802 341.474 195.487 341.474 195.487L345.013 206.147C345.441 207.434 344.883 208.756 343.669 209.198C342.367 209.698 340.813 208.982 340.211 207.623L335.674 197.26C335.674 197.26 335.158 195.842 335.305 196.059C333.582 193.881 333.109 194.767 319.841 200.698C316.083 202.415 312.962 201.433 312.962 201.433" stroke="#2A1C28" stroke-width="1.18378" stroke-miterlimit="10" stroke-linecap="round" stroke-linejoin="round"/>
<path d="M323.156 184.971C326.651 185.385 335.352 186.509 335.932 186.622C336.193 186.635 339.575 187.63 340.667 188.595C343.012 190.668 344.971 193.758 344.971 193.758L354.114 206.182C354.801 207.294 354.636 208.729 353.553 209.46C352.456 210.263 350.745 209.969 349.84 208.815C349.84 208.815 346.718 205.123 343.96 201.878" stroke="#2A1C28" stroke-width="1.18378" stroke-miterlimit="10" stroke-linecap="round" stroke-linejoin="round"/>
<path fill-rule="evenodd" clip-rule="evenodd" d="M241.325 161.979C237.496 156.306 238.959 148.574 244.675 144.716C250.348 140.887 258.08 142.349 261.938 148.066C262.055 148.239 262.143 148.369 262.231 148.499L293.247 169.796C291.882 169.268 287.915 172.45 284.131 177.21C280.16 182.159 277.883 186.911 278.976 187.876L244.779 165.321C243.441 164.459 242.275 163.292 241.325 161.979Z" fill="#D3D8DC"/>
<path fill-rule="evenodd" clip-rule="evenodd" d="M239.67 151.013H239.618L249.806 93.2808H249.858C251.478 86.2798 257.748 81.0552 265.219 81.0552C273.944 81.0552 280.997 88.1084 280.997 96.8336C280.997 103.208 277.183 108.746 271.697 111.201L264.383 152.842C264.383 159.686 258.845 165.276 251.948 165.276C245.104 165.276 239.514 159.738 239.514 152.842C239.514 152.215 239.566 151.588 239.67 151.013Z" fill="#D3D8DC"/>
<path d="M264.331 153.259C264.331 153.259 269.033 126.405 271.332 113.343" stroke="#9D9797" stroke-width="1.18378" stroke-miterlimit="10" stroke-linecap="round" stroke-linejoin="round"/>
<path fill-rule="evenodd" clip-rule="evenodd" d="M273.265 81.9435C273.422 81.5778 273.735 81.2121 274.205 80.9509L289.252 50.5435L307.486 61.045L301.164 86.1232C305.867 88.4743 308.74 90.9822 308.218 92.654C307.434 95.2141 298.97 94.9529 289.357 91.9748C279.743 89.049 272.586 84.5559 273.265 81.9435Z" fill="#CC7544"/>
<path fill-rule="evenodd" clip-rule="evenodd" d="M307.12 62.5079L302.836 79.6447C290.297 72.9049 288.521 53.8872 288.521 53.8872C296.723 55.4024 302.889 58.6939 307.12 62.5079Z" fill="#995128"/>
<path fill-rule="evenodd" clip-rule="evenodd" d="M280.893 42.0273C284.027 34.5038 290.611 37.5341 293.066 38.6835C289.827 28.6522 302.235 9.50913 318.85 20.5331C322.141 26.6459 322.22 38.6835 322.69 43.0722C325.25 44.0126 327.496 43.9081 327.967 44.8486C328.594 46.1547 328.071 48.5581 324.257 49.812C323.996 49.9165 323.787 49.9687 323.526 50.021C323.578 51.4316 323.63 52.8945 323.578 54.3052C322.481 56.9697 321.802 58.5894 320.652 61.2539C318.406 75.9352 308.688 79.2789 289.409 58.3281C282.46 56.5518 278.698 47.3042 280.893 42.0273Z" fill="#CC7544"/>
<path fill-rule="evenodd" clip-rule="evenodd" d="M316.368 54.9319L323.056 55.6634C322.376 57.283 321.802 58.5892 321.123 60.2088C316.42 58.7459 316.316 54.8797 316.368 54.9319Z" fill="#F8F7F8"/>
<path d="M292.073 49.8116C288.521 48.8189 289.304 44.7437 291.76 44.2734" stroke="#2C1C28" stroke-width="1.18378" stroke-miterlimit="10" stroke-linecap="round" stroke-linejoin="round"/>
<path d="M294.477 47.3042C292.282 43.647 289.252 43.02 289.252 43.02" stroke="#2C1C28" stroke-width="1.18378" stroke-miterlimit="10" stroke-linecap="round" stroke-linejoin="round"/>
<path d="M311.614 35.1303C315.532 31.9955 319.607 32.4657 319.607 32.4657" stroke="#2C1C28" stroke-width="1.18378" stroke-miterlimit="10" stroke-linecap="round" stroke-linejoin="round"/>
<path d="M315.584 39.9375L318.51 37.8999" stroke="#2C1C28" stroke-width="1.18378" stroke-miterlimit="10" stroke-linecap="round" stroke-linejoin="round"/>
<path fill-rule="evenodd" clip-rule="evenodd" d="M317.517 41.4522C317.465 42.7583 316.786 43.8032 316.002 43.8032C315.219 43.751 314.644 42.6538 314.696 41.3477C314.748 40.0415 315.428 38.9966 316.211 38.9966C316.995 38.9966 317.57 40.0938 317.517 41.4522Z" fill="#2C1C28"/>
<path fill-rule="evenodd" clip-rule="evenodd" d="M318.85 20.5328C318.85 20.5328 314.529 7.43989 290.752 8.31763C290.752 8.31763 273.411 7.77949 269.66 26.0971C269.66 26.0971 257.896 63.7246 256.83 81.572C256.83 81.572 273.756 87.3089 293.667 85.334C293.667 85.334 294.482 62.8524 291.87 52.936C291.87 52.936 285.799 54.284 286.164 44.6654C286.227 43.0353 287.141 41.4993 288.625 40.8201C290.375 40.0207 293.087 40.2297 296.681 44.7647C296.681 44.7647 298.818 34.8065 298.818 30.538C298.813 30.538 305.569 29.6498 318.85 20.5328Z" fill="#2C1C28"/>
<path d="M389.025 182.059L374.702 216.876H414.363L389.025 182.059Z" fill="#2A1C28"/>
<path d="M458.87 216.794H399.008C397.385 216.749 395.829 216.131 394.616 215.051C393.403 213.971 392.61 212.496 392.379 210.889L381.2 120.407C381.086 119.667 381.136 118.911 381.345 118.192C381.555 117.474 381.919 116.809 382.413 116.247C382.906 115.684 383.517 115.236 384.202 114.935C384.887 114.633 385.63 114.485 386.379 114.502H446.241C447.865 114.547 449.42 115.164 450.633 116.244C451.846 117.325 452.639 118.799 452.87 120.407L464.049 210.889C464.163 211.628 464.113 212.384 463.904 213.103C463.694 213.821 463.33 214.485 462.836 215.048C462.343 215.611 461.732 216.059 461.047 216.36C460.362 216.662 459.619 216.81 458.87 216.794Z" fill="#573652"/>
<path d="M463.839 216.87H403.977C402.354 216.825 400.798 216.208 399.585 215.128C398.372 214.048 397.58 212.574 397.348 210.967L386.169 119.922C386.055 119.182 386.105 118.426 386.315 117.708C386.524 116.989 386.888 116.325 387.382 115.762C387.876 115.199 388.486 114.752 389.172 114.45C389.857 114.149 390.6 114.001 391.348 114.017H451.21C452.833 114.062 454.389 114.68 455.601 115.76C456.814 116.84 457.606 118.314 457.838 119.922L469.017 210.967C469.131 211.706 469.081 212.462 468.872 213.18C468.662 213.899 468.298 214.563 467.804 215.125C467.311 215.688 466.7 216.136 466.015 216.437C465.33 216.739 464.588 216.887 463.839 216.87Z" fill="#F2DAC0"/>
<path d="M461.04 210.296H405.165C403.674 210.254 402.245 209.687 401.131 208.695C400.017 207.703 399.29 206.35 399.077 204.873L388.967 122.539C388.863 121.86 388.909 121.166 389.101 120.506C389.294 119.846 389.629 119.236 390.082 118.72C390.535 118.203 391.096 117.792 391.726 117.515C392.355 117.238 393.037 117.103 393.724 117.118H449.6C451.091 117.159 452.519 117.726 453.633 118.718C454.747 119.71 455.475 121.063 455.688 122.539L465.797 204.873C465.902 205.553 465.856 206.247 465.664 206.907C465.471 207.567 465.136 208.177 464.683 208.694C464.23 209.21 463.669 209.622 463.039 209.899C462.41 210.175 461.727 210.311 461.04 210.296Z" fill="white"/>
<path d="M435.018 215.278C435.841 214.403 435.707 212.939 434.718 212.009C433.729 211.078 432.259 211.033 431.436 211.908C430.613 212.783 430.747 214.247 431.736 215.178C432.725 216.108 434.195 216.153 435.018 215.278Z" fill="white"/>
<path d="M420.69 168.066H413.873L414.953 174.878H421.765L420.69 168.066ZM420.496 173.783H415.883L415.152 169.166H419.769L420.496 173.783Z" fill="#2A1C28"/>
<path d="M418.945 170.067H416.13L416.577 172.882H419.392L418.945 170.067Z" fill="#2A1C28"/>
<path d="M422.963 168.067L423.322 170.339H425.595L425.235 168.067H422.963Z" fill="#2A1C28"/>
<path d="M417.945 179.429H415.672L416.032 181.701L416.392 183.974H418.664L418.304 181.701L417.945 179.429Z" fill="#2A1C28"/>
<path d="M422.85 181.705L422.49 179.432H420.218L420.578 181.705H422.85Z" fill="#2A1C28"/>
<path d="M419.858 177.156H417.585L417.945 179.428H420.217L419.858 177.156Z" fill="#2A1C28"/>
<path d="M440.67 179.428L440.31 177.155H435.765L436.125 179.428H438.397L438.757 181.7H441.029L441.389 183.973H436.844L436.485 181.7L436.125 179.428H433.849L433.49 177.155H435.762L435.403 174.883L435.043 172.61H432.771L432.411 170.338H434.683L434.324 168.066H427.512L427.872 170.338H430.144L430.504 172.61L430.863 174.883H428.591L428.95 177.155H431.223L431.582 179.428L431.942 181.7H429.67L430.029 183.973H432.302L432.661 186.245L433.021 188.517H430.748L431.108 190.79H433.38L433.74 193.062L434.099 195.335H431.827L432.187 197.607H438.998L438.639 195.335H436.366L436.007 193.062H438.279L437.92 190.79L437.56 188.517H435.288L434.928 186.245H439.473L439.832 188.517H442.113L441.753 186.245H444.025L444.385 188.517H446.657L446.298 186.245L445.938 183.973H443.666L443.306 181.7H445.574L445.215 179.428H440.67Z" fill="#2A1C28"/>
<path d="M436.594 168.067L437.673 174.878H444.491L443.411 168.067H436.594ZM443.217 173.784H438.604L437.873 169.167H442.491L443.217 173.784Z" fill="#2A1C28"/>
<path d="M441.67 170.067H438.854L439.301 172.882H442.117L441.67 170.067Z" fill="#2A1C28"/>
<path d="M418.552 197.607H425.369L424.29 190.795H417.478L418.552 197.607ZM418.747 191.89H423.365L424.096 196.508H419.478L418.747 191.89Z" fill="#2A1C28"/>
<path d="M420.175 195.606H422.99L422.543 192.791H419.727L420.175 195.606Z" fill="#2A1C28"/>
<path d="M431.107 190.794H428.834L428.475 188.521H430.747L430.388 186.249L430.028 183.977H427.754L427.395 181.704H429.667L429.308 179.432H427.035L426.676 177.159L426.316 174.887H428.592L428.232 172.614L427.873 170.342H425.6L425.96 172.614H423.679L424.038 174.887L424.398 177.159H422.125L422.485 179.432H424.757L425.117 181.704H422.844L423.204 183.977H425.476L425.836 186.249H423.567L423.207 183.977H418.663L419.022 186.249H421.295L421.654 188.521H426.199L426.559 190.794L426.918 193.066H429.191L429.55 195.339H431.83L431.471 193.066L431.107 190.794Z" fill="#2A1C28"/>
<path d="M427.642 197.607H429.914L429.555 195.335H427.282L427.642 197.607Z" fill="#2A1C28"/>
<path d="M417.116 188.517H419.389L419.029 186.245H416.757L417.116 188.517Z" fill="#2A1C28"/>
<path d="M441.276 197.607H448.093L447.014 190.795H440.195L441.276 197.607ZM441.471 191.89H446.089L446.82 196.508H442.202L441.471 191.89Z" fill="#2A1C28"/>
<path d="M442.899 195.606H445.715L445.268 192.791H442.452L442.899 195.606Z" fill="#2A1C28"/>
<path d="M433.665 127.537L433.798 128.373C433.818 128.449 433.822 128.529 433.81 128.608C433.798 128.686 433.769 128.761 433.727 128.828C433.687 128.878 433.636 128.918 433.578 128.944C433.52 128.971 433.456 128.983 433.392 128.98C433.25 128.981 433.114 128.926 433.013 128.826C432.894 128.703 432.819 128.543 432.802 128.373L432.36 125.588C432.286 125.141 432.413 124.918 432.741 124.918C432.813 124.913 432.885 124.925 432.951 124.953C433.018 124.98 433.077 125.022 433.125 125.075C433.229 125.211 433.296 125.372 433.32 125.541C433.386 125.368 433.487 125.21 433.615 125.075C433.748 124.962 433.919 124.906 434.094 124.918C434.315 124.921 434.533 124.974 434.73 125.075C434.821 125.109 434.901 125.165 434.965 125.238C435.028 125.311 435.072 125.398 435.093 125.493C435.105 125.546 435.103 125.601 435.09 125.653C435.076 125.706 435.051 125.755 435.015 125.795C434.984 125.832 434.945 125.862 434.901 125.882C434.857 125.903 434.81 125.914 434.761 125.914C434.667 125.901 434.574 125.878 434.484 125.846C434.361 125.805 434.232 125.782 434.102 125.778C433.979 125.769 433.856 125.809 433.762 125.889C433.673 125.983 433.616 126.104 433.6 126.232C433.572 126.411 433.565 126.592 433.58 126.773C433.589 126.982 433.617 127.237 433.665 127.537Z" fill="#ED4B46"/>
<path d="M410.954 124.141L412.741 127.742L413.386 124.115C413.42 123.924 413.446 123.792 413.467 123.718C413.489 123.64 413.533 123.57 413.593 123.517C413.673 123.452 413.775 123.42 413.879 123.427C413.973 123.428 414.065 123.451 414.148 123.497C414.233 123.541 414.307 123.605 414.364 123.682C414.418 123.749 414.454 123.829 414.469 123.914C414.478 123.972 414.48 124.03 414.475 124.088C414.47 124.15 414.461 124.211 414.448 124.271C414.436 124.332 414.424 124.393 414.411 124.457L413.666 127.967C413.641 128.101 413.615 128.229 413.588 128.348C413.564 128.459 413.527 128.566 413.477 128.667C413.429 128.759 413.357 128.836 413.269 128.89C413.16 128.953 413.036 128.984 412.91 128.978C412.777 128.981 412.645 128.952 412.525 128.892C412.417 128.838 412.322 128.762 412.244 128.669C412.163 128.569 412.091 128.462 412.031 128.348C411.966 128.229 411.899 128.102 411.831 127.968L410.002 124.487C409.969 124.423 409.937 124.361 409.903 124.299C409.869 124.235 409.839 124.169 409.813 124.102C409.79 124.044 409.772 123.983 409.76 123.922C409.75 123.862 409.754 123.8 409.771 123.741C409.787 123.682 409.816 123.628 409.856 123.581C409.899 123.53 409.953 123.489 410.015 123.463C410.076 123.436 410.143 123.424 410.209 123.427C410.288 123.422 410.366 123.434 410.439 123.464C410.512 123.493 410.578 123.539 410.63 123.597C410.759 123.765 410.868 123.948 410.954 124.141Z" fill="#EF7A39"/>
<path d="M422.026 126.06L420.518 128.108H422.479C422.614 128.101 422.747 128.14 422.856 128.22C422.946 128.29 423.005 128.393 423.022 128.507C423.033 128.555 423.031 128.605 423.018 128.653C423.005 128.701 422.981 128.745 422.947 128.781C422.9 128.822 422.846 128.853 422.786 128.872C422.727 128.891 422.665 128.898 422.603 128.893H419.892C419.733 128.902 419.576 128.858 419.445 128.768C419.338 128.685 419.268 128.562 419.251 128.427C419.239 128.337 419.259 128.246 419.309 128.169C419.361 128.082 419.473 127.923 419.644 127.691C419.825 127.447 419.989 127.227 420.138 127.029C420.286 126.832 420.423 126.646 420.55 126.471C420.676 126.299 420.781 126.153 420.863 126.033C420.945 125.914 421.011 125.81 421.058 125.725H419.57C419.411 125.731 419.251 125.712 419.097 125.67C419.038 125.647 418.988 125.608 418.952 125.556C418.916 125.505 418.896 125.444 418.894 125.381C418.882 125.333 418.883 125.282 418.896 125.234C418.909 125.186 418.934 125.142 418.968 125.106C419.058 125.031 419.174 124.994 419.291 125.004H421.588C421.761 124.996 421.933 125.027 422.092 125.096C422.154 125.129 422.207 125.177 422.246 125.236C422.285 125.294 422.309 125.361 422.315 125.431C422.323 125.487 422.321 125.543 422.308 125.598C422.298 125.647 422.281 125.694 422.257 125.738C422.236 125.775 422.207 125.82 422.169 125.872C422.131 125.925 422.082 125.986 422.026 126.06Z" fill="#F28046"/>
<path d="M423.466 124.448C423.33 124.449 423.197 124.404 423.089 124.319C423.032 124.276 422.985 124.221 422.95 124.159C422.914 124.096 422.892 124.028 422.883 123.957C422.87 123.895 422.871 123.83 422.888 123.769C422.905 123.708 422.936 123.652 422.979 123.606C423.022 123.56 423.074 123.525 423.132 123.501C423.19 123.477 423.252 123.466 423.314 123.469C423.446 123.469 423.574 123.513 423.678 123.594C423.736 123.637 423.784 123.691 423.819 123.754C423.855 123.816 423.878 123.885 423.886 123.957C423.901 124.019 423.901 124.085 423.886 124.148C423.87 124.211 423.84 124.269 423.797 124.317C423.754 124.361 423.702 124.395 423.645 124.418C423.589 124.44 423.527 124.451 423.466 124.448ZM424.124 125.481L424.582 128.372C424.602 128.448 424.606 128.528 424.594 128.606C424.582 128.685 424.554 128.759 424.511 128.826C424.472 128.877 424.421 128.917 424.363 128.944C424.304 128.971 424.24 128.983 424.176 128.98C424.105 128.981 424.035 128.967 423.969 128.94C423.904 128.913 423.844 128.873 423.795 128.823C423.678 128.701 423.605 128.544 423.586 128.376L423.132 125.515C423.113 125.44 423.109 125.362 423.121 125.285C423.132 125.209 423.159 125.135 423.199 125.069C423.239 125.018 423.29 124.978 423.348 124.952C423.406 124.926 423.47 124.914 423.534 124.918C423.678 124.917 423.816 124.971 423.921 125.069C424.034 125.178 424.106 125.324 424.125 125.481H424.124Z" fill="#EE7A4F"/>
<path d="M425.137 125.002H425.249L425.154 124.401C425.129 124.24 425.113 124.114 425.107 124.022C425.1 123.942 425.111 123.861 425.141 123.786C425.17 123.717 425.22 123.659 425.283 123.619C425.354 123.576 425.436 123.553 425.519 123.556C425.654 123.559 425.784 123.609 425.885 123.698C425.961 123.759 426.019 123.839 426.053 123.931C426.094 124.058 426.124 124.189 426.142 124.322L426.254 125.004H426.62C426.74 124.999 426.858 125.034 426.955 125.104C427.038 125.167 427.093 125.26 427.108 125.362C427.124 125.415 427.122 125.472 427.101 125.523C427.081 125.574 427.044 125.617 426.996 125.645C426.856 125.707 426.703 125.735 426.55 125.725H426.365L426.657 127.564C426.674 127.686 426.699 127.806 426.731 127.925C426.751 128.003 426.793 128.075 426.851 128.13C426.92 128.188 427.008 128.216 427.097 128.21C427.175 128.207 427.254 128.197 427.33 128.179C427.406 128.161 427.483 128.15 427.56 128.147C427.647 128.15 427.73 128.184 427.794 128.244C427.866 128.305 427.914 128.391 427.929 128.484C427.942 128.56 427.929 128.639 427.892 128.706C427.854 128.773 427.795 128.826 427.723 128.854C427.49 128.953 427.238 128.997 426.985 128.983C426.73 128.996 426.476 128.941 426.249 128.825C426.076 128.726 425.941 128.573 425.863 128.39C425.769 128.15 425.705 127.901 425.671 127.646L425.366 125.726H425.234C425.11 125.733 424.988 125.696 424.888 125.624C424.804 125.561 424.748 125.467 424.733 125.363C424.723 125.317 424.725 125.27 424.739 125.224C424.752 125.179 424.777 125.138 424.811 125.105C424.902 125.03 425.019 124.993 425.137 125.002Z" fill="#E9674C"/>
<path d="M431.791 126.947C431.838 127.22 431.835 127.499 431.782 127.771C431.736 128.008 431.633 128.231 431.482 128.42C431.331 128.603 431.137 128.746 430.918 128.836C430.663 128.937 430.391 128.987 430.117 128.981C429.831 128.984 429.546 128.935 429.277 128.835C429.022 128.739 428.787 128.597 428.583 128.416C428.377 128.234 428.205 128.016 428.077 127.772C427.943 127.514 427.853 127.236 427.81 126.949C427.762 126.674 427.764 126.392 427.818 126.117C427.863 125.881 427.965 125.66 428.115 125.472C428.266 125.289 428.46 125.147 428.68 125.06C428.932 124.959 429.202 124.909 429.474 124.914C429.763 124.912 430.05 124.961 430.322 125.061C430.579 125.156 430.816 125.297 431.022 125.478C431.228 125.661 431.398 125.88 431.525 126.124C431.658 126.382 431.748 126.66 431.791 126.947ZM430.786 126.947C430.746 126.594 430.6 126.262 430.366 125.994C430.268 125.885 430.147 125.798 430.012 125.74C429.877 125.681 429.732 125.652 429.585 125.654C429.408 125.648 429.234 125.702 429.092 125.807C428.952 125.92 428.856 126.077 428.819 126.253C428.769 126.481 428.765 126.716 428.807 126.946C428.84 127.186 428.916 127.418 429.031 127.631C429.128 127.812 429.269 127.966 429.442 128.078C429.605 128.181 429.795 128.235 429.989 128.233C430.121 128.242 430.253 128.215 430.371 128.154C430.489 128.094 430.588 128.003 430.659 127.89C430.814 127.601 430.859 127.266 430.786 126.947Z" fill="#EC5449"/>
<path d="M416.046 125.364C415.935 125.462 415.831 125.569 415.735 125.682C415.686 125.757 415.661 125.844 415.662 125.933C415.662 126.157 415.671 126.38 415.675 126.61C415.676 126.638 415.671 126.665 415.66 126.691C415.649 126.716 415.633 126.739 415.612 126.757C415.591 126.776 415.566 126.789 415.54 126.796C415.513 126.804 415.485 126.806 415.458 126.801C415.394 126.795 415.336 126.766 415.292 126.72C415.249 126.673 415.223 126.613 415.221 126.55C415.209 126.255 415.2 125.959 415.189 125.664C415.185 125.611 415.193 125.558 415.212 125.508C415.232 125.459 415.262 125.414 415.3 125.377C415.47 125.212 415.635 125.042 415.811 124.884C415.896 124.801 415.998 124.736 416.109 124.694C416.22 124.651 416.339 124.632 416.458 124.637C416.546 124.635 416.633 124.657 416.709 124.7C416.786 124.743 416.849 124.805 416.894 124.881C417.021 125.082 417.136 125.29 417.237 125.505C417.277 125.608 417.34 125.702 417.42 125.779C417.499 125.856 417.594 125.915 417.699 125.952C417.881 126.025 418.059 126.106 418.239 126.187C418.294 126.208 418.34 126.249 418.368 126.3C418.396 126.352 418.405 126.412 418.393 126.47C418.386 126.497 418.374 126.522 418.356 126.543C418.338 126.564 418.315 126.58 418.29 126.591C418.264 126.602 418.237 126.606 418.209 126.605C418.182 126.603 418.155 126.595 418.131 126.582C417.837 126.458 417.542 126.337 417.256 126.197C417.159 126.135 417.073 126.057 417.001 125.968C416.967 125.921 416.93 125.877 416.889 125.836C416.88 126.016 416.889 126.199 416.86 126.374C416.851 126.451 416.86 126.529 416.885 126.602C416.91 126.676 416.951 126.742 417.005 126.797C417.452 127.34 417.877 127.891 418.31 128.44C418.48 128.657 418.416 128.903 418.18 128.938C418.112 128.945 418.043 128.933 417.981 128.903C417.919 128.873 417.866 128.826 417.829 128.768C417.481 128.322 417.13 127.886 416.782 127.444C416.539 127.136 416.295 126.828 416.056 126.516C416.022 126.468 416.002 126.41 416.002 126.351C416.013 126.025 416.031 125.711 416.046 125.364Z" fill="#444444"/>
<path d="M418.144 128.999C418.072 128.996 418.002 128.975 417.938 128.94C417.875 128.904 417.822 128.854 417.782 128.794L417.238 128.108L416.733 127.47L416.722 127.456C416.485 127.157 416.242 126.848 416.007 126.54C415.961 126.479 415.936 126.404 415.936 126.327C415.942 126.091 415.954 125.857 415.966 125.608V125.542C415.902 125.598 415.844 125.66 415.792 125.727C415.75 125.792 415.728 125.868 415.729 125.945C415.729 126.086 415.729 126.232 415.736 126.373C415.736 126.454 415.741 126.537 415.743 126.618C415.744 126.655 415.737 126.691 415.723 126.724C415.708 126.757 415.687 126.787 415.66 126.811C415.632 126.835 415.6 126.852 415.565 126.862C415.53 126.872 415.493 126.874 415.458 126.867C415.376 126.858 415.3 126.821 415.243 126.761C415.187 126.701 415.154 126.623 415.15 126.54C415.143 126.368 415.136 126.196 415.131 126.025C415.127 125.902 415.122 125.778 415.117 125.655C415.113 125.593 415.122 125.531 415.145 125.473C415.167 125.415 415.202 125.363 415.247 125.32L415.383 125.187C415.505 125.067 415.63 124.943 415.758 124.825C415.849 124.737 415.958 124.668 416.076 124.623C416.195 124.578 416.321 124.557 416.448 124.563C416.55 124.561 416.65 124.587 416.738 124.637C416.827 124.688 416.9 124.76 416.951 124.848L416.985 124.907C417.102 125.091 417.207 125.284 417.298 125.483C417.335 125.575 417.392 125.658 417.464 125.726C417.536 125.795 417.621 125.847 417.715 125.88C417.866 125.941 418.018 126.009 418.161 126.075L418.254 126.116C418.325 126.145 418.384 126.199 418.421 126.267C418.457 126.335 418.47 126.413 418.455 126.489C418.446 126.522 418.43 126.553 418.408 126.579C418.385 126.606 418.357 126.626 418.325 126.64C418.289 126.653 418.251 126.659 418.213 126.658C418.174 126.656 418.137 126.647 418.102 126.631L417.99 126.585C417.736 126.473 417.473 126.368 417.219 126.243C417.133 126.194 417.058 126.129 416.995 126.052L416.943 125.998C416.942 126.125 416.934 126.252 416.918 126.378C416.911 126.445 416.918 126.513 416.941 126.576C416.963 126.64 416.999 126.697 417.047 126.745C417.412 127.191 417.775 127.656 418.128 128.102L418.351 128.387C418.397 128.44 418.431 128.503 418.448 128.572C418.465 128.64 418.466 128.712 418.45 128.78C418.432 128.837 418.398 128.887 418.352 128.924C418.306 128.962 418.249 128.985 418.19 128.99C418.175 128.994 418.16 128.997 418.144 128.999ZM416.127 125.18L416.117 125.378C416.117 125.466 416.113 125.552 416.104 125.637C416.092 125.884 416.081 126.118 416.074 126.354C416.076 126.394 416.089 126.433 416.112 126.465C416.347 126.771 416.59 127.081 416.826 127.379L416.837 127.393L417.342 128.031L417.885 128.718C417.914 128.764 417.955 128.802 418.004 128.826C418.053 128.851 418.108 128.861 418.162 128.855C418.2 128.852 418.236 128.838 418.266 128.815C418.296 128.791 418.318 128.759 418.33 128.723C418.34 128.677 418.339 128.63 418.327 128.584C418.314 128.539 418.291 128.497 418.26 128.462L418.036 128.176C417.686 127.729 417.321 127.268 416.957 126.821C416.897 126.757 416.851 126.681 416.823 126.598C416.795 126.515 416.785 126.426 416.794 126.339C416.809 126.218 416.817 126.095 416.818 125.973C416.818 125.918 416.818 125.861 416.818 125.808L416.823 125.688L416.926 125.771C416.96 125.799 416.989 125.832 417.013 125.868C417.023 125.883 417.034 125.896 417.046 125.909L417.101 125.968C417.151 126.029 417.209 126.081 417.276 126.122C417.525 126.243 417.786 126.353 418.038 126.456L418.15 126.502C418.167 126.511 418.186 126.516 418.205 126.517C418.224 126.518 418.244 126.515 418.262 126.509C418.278 126.502 418.292 126.492 418.303 126.478C418.315 126.465 418.322 126.449 418.327 126.432C418.334 126.392 418.327 126.35 418.307 126.315C418.286 126.279 418.253 126.252 418.215 126.239L418.121 126.196C417.976 126.132 417.825 126.065 417.674 126.005C417.56 125.964 417.456 125.899 417.368 125.815C417.28 125.731 417.211 125.63 417.165 125.517C417.077 125.325 416.976 125.138 416.863 124.959L416.827 124.901C416.789 124.837 416.736 124.785 416.671 124.749C416.606 124.713 416.533 124.696 416.459 124.698C416.348 124.694 416.237 124.712 416.133 124.752C416.029 124.792 415.934 124.852 415.854 124.93C415.727 125.042 415.602 125.17 415.481 125.288L415.345 125.422C415.312 125.453 415.286 125.491 415.27 125.533C415.253 125.576 415.246 125.621 415.249 125.666C415.253 125.789 415.258 125.913 415.262 126.037C415.268 126.209 415.274 126.379 415.281 126.551C415.283 126.595 415.3 126.637 415.331 126.67C415.361 126.702 415.402 126.722 415.445 126.726C415.464 126.729 415.484 126.728 415.502 126.722C415.521 126.717 415.538 126.708 415.553 126.695C415.567 126.682 415.578 126.666 415.586 126.649C415.593 126.631 415.597 126.612 415.596 126.593C415.596 126.511 415.596 126.43 415.59 126.348C415.59 126.205 415.579 126.058 415.583 125.913C415.582 125.811 415.612 125.712 415.668 125.628C415.731 125.547 415.802 125.472 415.879 125.405C415.913 125.372 415.948 125.34 415.985 125.303L416.127 125.18Z" fill="#444444"/>
<path d="M415.993 126.908C416.163 127.095 416.321 127.268 416.476 127.443C416.489 127.459 416.496 127.48 416.495 127.501C416.495 127.685 416.457 127.867 416.383 128.036C416.226 128.282 416.085 128.541 415.937 128.795C415.919 128.83 415.894 128.86 415.864 128.884C415.833 128.908 415.797 128.925 415.759 128.933C415.721 128.941 415.682 128.941 415.644 128.932C415.606 128.923 415.571 128.905 415.54 128.881C415.506 128.861 415.476 128.834 415.452 128.801C415.428 128.769 415.41 128.733 415.401 128.694C415.391 128.655 415.389 128.615 415.395 128.575C415.402 128.535 415.416 128.497 415.436 128.463C415.577 128.22 415.72 127.98 415.857 127.735C415.889 127.677 415.909 127.614 415.918 127.549C415.942 127.345 415.967 127.137 415.993 126.908Z" fill="#444444"/>
<path d="M415.72 129.006C415.635 129.002 415.553 128.972 415.484 128.921C415.415 128.87 415.364 128.8 415.335 128.719C415.32 128.67 415.315 128.618 415.321 128.566C415.327 128.515 415.344 128.465 415.371 128.421C415.421 128.334 415.471 128.247 415.523 128.16C415.612 128.007 415.703 127.849 415.792 127.693C415.819 127.641 415.837 127.585 415.844 127.527C415.865 127.381 415.882 127.235 415.9 127.08C415.908 127.017 415.914 126.954 415.922 126.889L415.939 126.754L416.147 126.977C416.277 127.122 416.403 127.259 416.525 127.396C416.54 127.412 416.55 127.431 416.557 127.452C416.564 127.472 416.566 127.494 416.564 127.515C416.557 127.561 416.553 127.608 416.548 127.657C416.545 127.803 416.506 127.945 416.436 128.073C416.331 128.237 416.233 128.408 416.137 128.579C416.089 128.663 416.041 128.746 415.992 128.83C415.967 128.881 415.928 128.924 415.88 128.956C415.832 128.987 415.777 129.004 415.72 129.006ZM416.045 127.06L416.038 127.116C416.021 127.272 416.003 127.419 415.982 127.562C415.972 127.635 415.95 127.705 415.916 127.769C415.827 127.926 415.735 128.085 415.645 128.238C415.595 128.325 415.544 128.411 415.494 128.498C415.476 128.527 415.464 128.559 415.46 128.593C415.455 128.627 415.457 128.661 415.467 128.694C415.484 128.746 415.52 128.791 415.567 128.82C415.591 128.839 415.618 128.852 415.648 128.859C415.677 128.866 415.708 128.866 415.737 128.859C415.766 128.851 415.794 128.838 415.817 128.818C415.84 128.799 415.859 128.775 415.871 128.747C415.92 128.665 415.968 128.581 416.016 128.497C416.113 128.328 416.213 128.153 416.319 127.987C416.377 127.875 416.409 127.75 416.409 127.624C416.409 127.576 416.418 127.527 416.426 127.478C416.305 127.342 416.181 127.206 416.051 127.062L416.045 127.06Z" fill="#444444"/>
<path d="M417.146 123.914C417.159 123.979 417.157 124.047 417.141 124.112C417.125 124.177 417.094 124.237 417.051 124.288C417.008 124.34 416.954 124.381 416.893 124.409C416.832 124.436 416.766 124.45 416.699 124.449C416.551 124.442 416.408 124.385 416.296 124.288C416.184 124.19 416.108 124.057 416.082 123.91C416.069 123.845 416.072 123.777 416.089 123.712C416.107 123.647 416.138 123.587 416.182 123.536C416.226 123.485 416.281 123.445 416.342 123.418C416.404 123.391 416.47 123.379 416.537 123.381C416.684 123.388 416.824 123.445 416.934 123.542C417.045 123.638 417.119 123.769 417.146 123.914Z" fill="#444444"/>
<path d="M416.709 124.518C416.541 124.511 416.381 124.447 416.254 124.337C416.127 124.227 416.042 124.076 416.012 123.911C415.997 123.836 415.999 123.759 416.019 123.686C416.038 123.612 416.074 123.544 416.124 123.487C416.173 123.429 416.235 123.383 416.305 123.353C416.375 123.323 416.45 123.309 416.526 123.312C416.692 123.32 416.85 123.383 416.976 123.492C417.101 123.602 417.185 123.75 417.215 123.913C417.229 123.988 417.226 124.065 417.207 124.139C417.187 124.213 417.152 124.282 417.104 124.341C417.055 124.398 416.995 124.443 416.926 124.474C416.858 124.504 416.784 124.52 416.709 124.518ZM416.542 123.451C416.484 123.449 416.426 123.461 416.373 123.484C416.32 123.508 416.273 123.543 416.235 123.588C416.197 123.632 416.17 123.684 416.156 123.741C416.141 123.797 416.139 123.856 416.15 123.913C416.172 124.041 416.238 124.158 416.338 124.241C416.434 124.329 416.558 124.378 416.688 124.381C416.746 124.382 416.803 124.371 416.856 124.347C416.909 124.323 416.956 124.289 416.993 124.245C417.031 124.199 417.058 124.145 417.073 124.087C417.088 124.029 417.089 123.968 417.078 123.91C417.055 123.784 416.99 123.67 416.894 123.585C416.797 123.501 416.675 123.452 416.548 123.446L416.542 123.451Z" fill="#444444"/>
<path d="M441.998 152.433H409.757C409.356 152.419 408.972 152.268 408.669 152.006C408.365 151.744 408.16 151.387 408.088 150.992L406.673 142.059C406.637 141.881 406.642 141.698 406.686 141.523C406.731 141.347 406.815 141.184 406.932 141.046C407.048 140.908 407.194 140.797 407.36 140.723C407.525 140.649 407.705 140.613 407.885 140.618H440.126C440.527 140.632 440.911 140.783 441.214 141.045C441.518 141.307 441.723 141.664 441.795 142.059L443.21 150.992C443.246 151.169 443.241 151.353 443.196 151.528C443.152 151.703 443.068 151.866 442.952 152.005C442.835 152.143 442.689 152.253 442.524 152.328C442.359 152.402 442.179 152.438 441.998 152.433Z" fill="#ED5C18"/>
<path d="M412.633 144.762C413.026 145.037 413.327 145.423 413.498 145.871H412.605C412.483 145.65 412.306 145.464 412.091 145.331C411.871 145.198 411.619 145.13 411.362 145.134C411.156 145.129 410.954 145.187 410.782 145.301C410.617 145.418 410.496 145.587 410.438 145.78C410.37 146.018 410.358 146.269 410.404 146.512C410.441 146.77 410.531 147.017 410.67 147.238C410.792 147.436 410.962 147.601 411.164 147.718C411.357 147.828 411.574 147.886 411.796 147.885C412.035 147.896 412.271 147.827 412.466 147.688C412.64 147.554 412.762 147.363 412.81 147.148H413.698C413.69 147.358 413.64 147.564 413.552 147.754C413.464 147.944 413.339 148.115 413.184 148.257C412.834 148.545 412.388 148.691 411.936 148.666C411.549 148.67 411.168 148.577 410.827 148.396C410.486 148.214 410.195 147.951 409.982 147.628C409.757 147.293 409.609 146.911 409.55 146.512C409.481 146.139 409.507 145.755 409.627 145.395C409.734 145.081 409.943 144.811 410.222 144.63C410.531 144.44 410.89 144.346 411.252 144.358C411.743 144.345 412.226 144.486 412.633 144.762Z" fill="white"/>
<path d="M417.406 144.397L418.076 148.63H417.224L416.933 146.789H415.123L415.414 148.63H414.569L413.899 144.397H414.744L415.017 146.112H416.827L416.555 144.397H417.406Z" fill="white"/>
<path d="M419.126 145.069L419.299 146.166H420.798L420.9 146.814H419.402L419.582 147.952H421.257L421.368 148.63H418.845L418.175 144.397H420.698L420.81 145.067L419.126 145.069Z" fill="white"/>
<path d="M424.605 144.762C424.998 145.037 425.3 145.423 425.471 145.871H424.583C424.461 145.649 424.284 145.464 424.068 145.331C423.849 145.198 423.596 145.13 423.339 145.134C423.133 145.128 422.931 145.187 422.76 145.301C422.594 145.417 422.473 145.586 422.416 145.78C422.348 146.018 422.336 146.269 422.381 146.512C422.418 146.769 422.509 147.016 422.646 147.238C422.769 147.436 422.939 147.601 423.141 147.718C423.334 147.828 423.553 147.886 423.775 147.885C424.014 147.896 424.25 147.826 424.445 147.688C424.619 147.554 424.74 147.363 424.787 147.148H425.681C425.672 147.358 425.622 147.564 425.534 147.754C425.446 147.944 425.321 148.115 425.166 148.257C424.816 148.545 424.37 148.691 423.918 148.666C423.531 148.669 423.15 148.576 422.809 148.395C422.467 148.214 422.177 147.95 421.963 147.628C421.739 147.293 421.592 146.911 421.532 146.512C421.463 146.139 421.49 145.755 421.609 145.395C421.717 145.081 421.926 144.811 422.205 144.63C422.514 144.441 422.873 144.346 423.235 144.358C423.723 144.347 424.202 144.488 424.605 144.762Z" fill="white"/>
<path d="M427.845 146.477L429.979 148.63H428.954L427.082 146.694L427.389 148.63H426.543L425.873 144.397H426.718L427.02 146.295L428.289 144.397H429.309L427.845 146.477Z" fill="white"/>
<path d="M432.204 146.141L432.316 146.842H429.768L429.656 146.141H432.204Z" fill="white"/>
<path d="M435.064 144.397L435.734 148.63H434.889L434.219 144.397H435.064Z" fill="white"/>
<path d="M440.087 148.63H439.239L436.889 145.751L437.344 148.63H436.499L435.829 144.397H436.674L439.028 147.3L438.568 144.397H439.413L440.087 148.63Z" fill="white"/>
<path d="M386.911 295.006C387.763 295.623 388.559 296.418 389.276 297.37" stroke="#AD4A4D" stroke-width="1.1822" stroke-linecap="round" stroke-linejoin="round"/>
<rect x="102" y="218.708" width="558" height="260.085" fill="#FEF9F4"/>
<path d="M102 218.163H660" stroke="#EDCBA6" stroke-width="3.54661" stroke-linecap="round" stroke-linejoin="round"/>
<path fill-rule="evenodd" clip-rule="evenodd" d="M688.425 444.776H661.324L665.955 469.351H693.056L688.425 444.776Z" fill="#D3D8DC"/>
<path fill-rule="evenodd" clip-rule="evenodd" d="M570.813 430.831L597.493 430.778L596.756 465.193L567.604 463.667L570.813 430.831Z" fill="#D3D8DC"/>
<path fill-rule="evenodd" clip-rule="evenodd" d="M602.492 487.242C602.492 487.242 595.862 488.348 589.758 488.716C584.548 489.032 584.653 495.399 575.918 498.714C569.445 501.135 559.289 501.187 546.818 499.451C535.03 497.82 530.715 495.452 529.926 494.504H529.82V494.347C529.768 494.241 529.768 494.136 529.82 494.083L529.663 488.4H533.557C534.767 487.769 536.398 487.4 538.608 487.453C548.344 486.506 565.393 467.141 567.919 455.353C570.498 453.511 575.918 456.616 580.864 459.089C586.179 466.667 591.968 462.089 591.968 462.089C591.968 462.089 594.178 459.247 596.967 456.827C602.65 464.615 603.913 484.98 602.492 487.242Z" fill="#2C1C28"/>
<path fill-rule="evenodd" clip-rule="evenodd" d="M713.947 492.61L713.842 497.504H713.736C713.736 497.557 713.736 497.609 713.736 497.609C709.842 499.188 706.159 500.609 691.424 501.187C679.216 501.714 671.375 499.872 666.955 497.03C662.061 493.926 666.06 487.243 661.114 486.401C658.114 485.874 657.43 483.822 657.43 483.822C658.114 473.929 659.167 462.089 663.008 457.511C663.008 460.826 665.587 463.562 665.587 463.562C665.587 463.562 666.85 464.773 671.375 457.037C677.216 454.511 683.689 454.09 689.793 457.142C694.424 474.613 701.844 483.98 708 490.347C709.527 490.347 710.684 491.294 711.579 492.557H713.947V492.61Z" fill="#2C1C28"/>
<path fill-rule="evenodd" clip-rule="evenodd" d="M602.334 481.928C602.334 481.928 595.704 483.033 589.6 483.401C584.39 483.717 584.495 490.084 575.76 493.399C569.287 495.82 559.131 495.873 546.66 494.136C531.557 492.031 528.715 488.769 529.873 488.716C529.873 488.716 529.768 481.928 538.503 482.138C548.238 481.191 565.446 462.405 567.972 450.617C570.55 448.776 579.338 451.354 580.759 453.775C586.074 461.352 591.073 459.247 591.073 459.247C591.073 459.247 596.441 457.984 597.019 451.565C602.755 459.353 603.755 479.665 602.334 481.928Z" fill="#814A2A"/>
<path fill-rule="evenodd" clip-rule="evenodd" d="M657.588 478.928C657.588 478.928 658.219 480.981 661.271 481.507C666.218 482.349 662.219 489.032 667.113 492.137C671.533 494.978 679.374 496.82 691.582 496.294C706.316 495.662 710 494.294 713.894 492.715C713.894 492.715 712.315 485.506 708.158 485.506C702.054 479.139 694.582 469.772 689.951 452.301C686.004 449.354 677.374 449.618 671.533 452.196C667.06 459.932 665.692 458.3 665.692 458.3C665.692 458.3 663.113 456.143 662.797 452.828C659.798 459.09 658.325 469.035 657.588 478.928Z" fill="#814A2A"/>
<path fill-rule="evenodd" clip-rule="evenodd" d="M689.477 447.617C689.477 447.723 689.477 447.67 689.477 447.775C689.372 449.144 680.689 450.249 670.218 450.249C660.272 450.249 652.221 449.249 651.589 447.986H651.537C651.537 447.986 636.907 429.2 634.908 392.522C630.487 310.904 598.019 227.813 598.019 227.813C598.019 227.813 594.862 206.764 649.432 219.499L689.477 447.46V447.617Z" fill="#5A74C7"/>
<path fill-rule="evenodd" clip-rule="evenodd" d="M604.387 208.554C579.286 208.554 559.026 212.974 559.184 218.447C559.342 223.919 579.812 228.34 604.913 228.34C630.014 228.34 650.274 223.919 650.116 218.447C650.011 212.974 629.54 208.554 604.387 208.554Z" fill="#5A74C7"/>
<path fill-rule="evenodd" clip-rule="evenodd" d="M648.8 186.504C648.8 186.504 635.855 178.243 615.227 177.927C573.971 177.348 556.342 186.294 556.342 186.294L557.237 218.341L649.484 210.448L648.8 186.504Z" fill="#7581F1"/>
<path fill-rule="evenodd" clip-rule="evenodd" d="M603.597 388.628C609.017 427.2 601.44 447.828 601.071 448.775C600.756 449.88 593.02 450.722 583.39 450.722C573.918 450.722 566.13 449.88 565.604 448.775H565.551L556.763 208.764C556.763 208.764 568.919 206.133 579.917 208.764C592.704 211.816 603.755 226.077 603.755 226.077C603.755 226.077 594.757 325.796 603.597 388.628Z" fill="#5A74C7"/>
<path d="M568.498 194.871C568.498 194.871 567.919 211.342 557.763 222.867" stroke="#555EC2" stroke-width="1.1923" stroke-miterlimit="10" stroke-linecap="round" stroke-linejoin="round"/>
<path d="M620.647 192.293C620.647 192.293 620.963 215.605 642.328 223.287" stroke="#3763C3" stroke-width="1.1923" stroke-miterlimit="10" stroke-linecap="round" stroke-linejoin="round"/>
<path d="M689.372 446.828L640.486 210.606C640.749 206.133 641.696 195.135 641.696 195.135" stroke="#3763C3" stroke-width="1.1923" stroke-miterlimit="10" stroke-linecap="round" stroke-linejoin="round"/>
<path d="M592.757 229.813C592.757 229.813 589.073 325.638 595.125 395.048C597.861 426.095 592.81 449.88 592.81 449.88" stroke="#3763C3" stroke-width="1.1923" stroke-miterlimit="10" stroke-linecap="round" stroke-linejoin="round"/>
<path fill-rule="evenodd" clip-rule="evenodd" d="M602.334 246.021L602.703 240.601L599.019 228.339L584.601 225.656C584.548 225.656 587.442 242.021 602.334 246.021Z" fill="#375BB7"/>
<path fill-rule="evenodd" clip-rule="evenodd" d="M545.207 136.047C549.695 177.164 540.549 197.671 554.548 207.809C555.145 215.05 556.076 226.224 556.076 226.224C556.076 226.224 556.17 227.061 556.821 227.676C557.582 228.332 558.193 228.582 558.193 228.582C558.193 228.582 557.488 225.59 557.796 225.502C561.009 224.402 570.915 222.077 602.509 219.077C626.397 216.779 640.409 217.543 649.782 217.555C650.428 219.548 650.603 220.164 650.603 220.164C650.603 220.164 654.542 218.93 654.582 217.39C654.582 217.39 653.266 203.717 652.77 199.748C662.209 192.287 660.757 174.552 644.515 127.758C651.997 122.686 656.53 113.496 655.432 103.664C653.895 89.91 642.086 79.9509 628.855 80.9526L628.227 81.0227C628.175 81.0286 628.123 81.0344 628.018 81.0461C627.966 81.0519 627.861 81.0636 627.809 81.0695L552.048 89.6925C540.143 92.6111 532.153 104.517 533.591 117.382C534.455 125.122 539.248 132 545.207 136.047Z" fill="#ED5C18"/>
<path d="M554.042 197.671C566.777 195.092 619.189 191.093 652.709 200.565" stroke="#CC2818" stroke-width="1.1923" stroke-miterlimit="10" stroke-linecap="round" stroke-linejoin="round"/>
<path d="M569.57 101.978L586.697 114.044L604.028 97.5991" stroke="#CC2818" stroke-width="1.1923" stroke-miterlimit="10" stroke-linecap="round" stroke-linejoin="round"/>
<path fill-rule="evenodd" clip-rule="evenodd" d="M577.865 125.038C571.236 138.222 553.074 162.384 537.047 173.917C533.977 179.608 528.296 183.738 521.393 184.509C510.253 185.753 500.195 177.717 498.957 166.63C498.074 158.733 501.865 151.426 508.086 147.395C508.231 147.273 508.33 147.209 508.475 147.087C525.583 136.704 532.618 113.414 533.818 108.991C535.66 98.9363 543.866 90.8713 554.535 89.6794C567.557 88.2245 579.353 97.6025 580.808 110.624C581.393 115.854 580.251 120.8 577.865 125.038Z" fill="#ED5C18"/>
<path d="M540.895 165.227L548.623 114.962" stroke="#ED5C18" stroke-width="1.1923" stroke-miterlimit="10" stroke-linecap="round" stroke-linejoin="round"/>
<path fill-rule="evenodd" clip-rule="evenodd" d="M706.412 150.495C707.779 162.732 698.947 173.727 686.761 175.088C679.597 175.888 672.837 173.202 668.162 168.323L631.198 131.787C618.657 131.865 607.779 122.172 606.306 108.994C604.741 94.9779 614.455 82.4024 628.052 80.8833C635.949 80.0011 643.331 83.0417 648.495 88.5011L648.588 88.3848L700.035 137.017L699.988 137.075C703.401 140.612 705.822 145.213 706.412 150.495Z" fill="#ED5C18"/>
<path d="M623.406 123.656L660.633 163.499" stroke="#CC2818" stroke-width="1.1923" stroke-miterlimit="10" stroke-linecap="round" stroke-linejoin="round"/>
<path fill-rule="evenodd" clip-rule="evenodd" d="M706.412 150.495C707.779 162.732 698.947 173.727 686.762 175.088C684.774 175.31 682.81 175.265 680.921 174.946L644.118 173.022L644.179 139.445C644.179 139.445 651.693 139.399 656.725 139.42C662.109 123.622 686.095 129.784 688.781 131.073C697.888 132.968 705.308 140.611 706.412 150.495Z" fill="#ED5C18"/>
<path fill-rule="evenodd" clip-rule="evenodd" d="M646.26 140.059C641.993 137.888 637.62 143.301 636.551 152.21C635.475 161.067 638.096 170.306 642.362 172.476C646.629 174.647 650.973 168.973 652.048 160.116C653.17 151.201 650.526 142.23 646.26 140.059Z" fill="#CC2818"/>
<path fill-rule="evenodd" clip-rule="evenodd" d="M645.638 141.611C641.819 139.655 637.917 144.539 636.951 152.483C635.986 160.428 638.339 168.69 642.158 170.646C645.977 172.602 649.856 167.509 650.821 159.565C651.833 151.562 649.504 143.509 645.638 141.611Z" fill="#D3D8DC"/>
<path fill-rule="evenodd" clip-rule="evenodd" d="M634.545 141.368L643.907 141.276L644.239 171.261L633.825 171.419L634.545 141.368Z" fill="#D3D8DC"/>
<path fill-rule="evenodd" clip-rule="evenodd" d="M635.847 141.646C632.028 139.69 628.125 144.574 627.16 152.518C626.194 160.463 628.547 168.725 632.366 170.681C636.185 172.637 640.064 167.544 641.029 159.6C641.989 151.603 639.66 143.55 635.847 141.646Z" fill="#A8B3BC"/>
<path fill-rule="evenodd" clip-rule="evenodd" d="M634.86 142.762C631.657 141.108 628.358 145.236 627.566 151.89C626.78 158.597 628.719 165.529 631.916 167.131C635.119 168.785 638.4 164.5 639.186 157.793C640.031 151.133 638.057 144.364 634.86 142.762Z" fill="#E99670"/>
<path fill-rule="evenodd" clip-rule="evenodd" d="M602.59 142.555L609.227 153.145L602.59 142.555Z" fill="#E99670"/>
<path fill-rule="evenodd" clip-rule="evenodd" d="M614.213 163.655C607.383 160.817 604.585 155.199 599.027 150.949L596.922 149.649C595.731 148.934 595.3 147.447 595.909 146.267C596.53 145.192 597.867 144.83 598.983 145.341C598.983 145.341 604.854 148.604 612.491 149.657C624.169 146.128 640.049 171.676 614.213 163.655Z" fill="#E99670"/>
<path d="M588.249 125.572L603.285 128.393L604.476 128.631L605.075 128.776L605.348 128.851L605.731 128.967C606.818 129.216 607.818 129.634 608.829 130.156C609.841 130.679 610.759 131.317 611.637 132.067C612.05 132.444 612.463 132.822 612.882 133.251C613.062 133.443 613.248 133.687 613.428 133.879L613.923 134.512L631.509 157.327C634.545 161.277 625.216 166.873 616.315 160.666L607.916 138.095L607.66 137.7C607.596 137.601 607.532 137.503 607.468 137.404C607.34 137.206 607.16 137.015 606.98 136.823C606.619 136.44 606.264 136.109 605.805 135.789C605.352 135.522 604.898 135.255 604.398 135.046L604.178 134.965L603.904 134.89L603.3 134.692L602.149 134.344L587.264 130.501C585.893 130.071 584.991 128.637 585.316 127.277C585.704 126.015 586.947 125.294 588.249 125.572Z" fill="#E99670"/>
<path fill-rule="evenodd" clip-rule="evenodd" d="M614.497 151.974L608.876 140.529L608.527 140.251C608.411 140.158 608.353 140.111 608.237 140.018C608.062 139.879 607.836 139.745 607.609 139.612C607.156 139.345 606.708 139.13 606.22 139.026C605.726 138.869 605.237 138.765 604.709 138.771L604.494 138.742L604.174 138.725L603.593 138.737L602.425 138.709L587.542 138.2C586.112 138.201 584.932 137.115 584.833 135.75C584.75 134.541 585.697 133.535 587.004 133.389L601.776 132.904L602.927 132.775L603.502 132.711L603.816 132.676L604.182 132.635C605.234 132.57 606.303 132.663 607.384 132.86C608.465 133.056 609.505 133.364 610.511 133.834C611.011 134.043 611.517 134.304 611.97 134.571C612.197 134.705 612.424 134.838 612.656 135.024L613.284 135.43L625.18 146.65C630.718 155.457 624.999 154.984 614.497 151.974Z" fill="#E99670"/>
<path d="M588.249 125.572L603.285 128.393L604.476 128.631L605.075 128.776L605.348 128.851L605.731 128.967C606.818 129.216 607.818 129.634 608.829 130.156C609.841 130.679 610.759 131.317 611.637 132.067C612.05 132.444 612.463 132.822 612.882 133.251C613.062 133.443 613.248 133.687 613.428 133.879L613.923 134.512L631.509 157.327C634.545 161.277 625.216 166.873 616.315 160.666L607.916 138.095L607.66 137.7C607.596 137.601 607.532 137.503 607.468 137.404C607.34 137.206 607.16 137.015 606.98 136.823C606.619 136.44 606.264 136.109 605.805 135.789C605.352 135.522 604.898 135.255 604.398 135.046L604.178 134.965L603.904 134.89L603.3 134.692L602.149 134.344L587.264 130.501C585.893 130.071 584.991 128.637 585.316 127.277C585.704 126.015 586.947 125.294 588.249 125.572Z" fill="#E99670"/>
<path fill-rule="evenodd" clip-rule="evenodd" d="M620.046 151.883L612.056 141.974L611.661 141.754C611.55 141.713 611.434 141.62 611.324 141.58C611.103 141.498 610.876 141.365 610.661 141.336C610.167 141.179 609.679 141.075 609.196 141.023C608.714 140.971 608.185 140.977 607.668 141.088L607.459 141.111L607.151 141.199L606.581 141.315L605.443 141.548L594.85 143.897C593.456 144.211 592.043 143.416 591.688 142.132C591.344 140.952 592.058 139.761 593.284 139.359L603.556 136.04L604.678 135.65L605.241 135.481L605.497 135.4L605.857 135.307C606.886 135.033 607.926 134.864 609.03 134.793C610.134 134.723 611.203 134.815 612.284 135.012C612.825 135.111 613.371 135.262 613.865 135.418C614.138 135.494 614.411 135.569 614.638 135.702L615.359 135.993L625.13 150.468C632.312 157.873 630.972 152.516 620.046 151.883Z" fill="#E99670"/>
<path fill-rule="evenodd" clip-rule="evenodd" d="M600.089 138.652L614.796 136.638L616.852 155.047L611.676 157.055L600.089 138.652Z" fill="#E99670"/>
<path fill-rule="evenodd" clip-rule="evenodd" d="M633.389 142.398L620.711 144.555L620.589 165.272L633.224 167.461C637.62 161.781 637.334 150.694 633.389 142.398Z" fill="#E99670"/>
<path d="M617.193 161.416C617.193 161.416 614.653 159.528 613.848 155.647C610.894 141.998 611.329 141.155 608.615 141.035C608.83 141.064 605.39 141.554 605.39 141.554L594.798 143.902C593.403 144.217 591.991 143.422 591.636 142.138C591.292 140.958 592.006 139.767 593.232 139.365L603.504 136.046C603.504 136.046 609.628 133.509 612.68 135.233C616.47 137.404 622.564 144.083 622.564 144.083" stroke="#2C1C28" stroke-width="1.1923" stroke-miterlimit="10" stroke-linecap="round" stroke-linejoin="round"/>
<path d="M596.364 138.486C592.273 138.36 587.647 138.189 587.647 138.189C586.217 138.19 585.037 137.104 584.937 135.738C584.855 134.529 585.802 133.524 587.109 133.378L601.881 132.892L603.032 132.764L603.607 132.699L603.921 132.664L604.287 132.623C605.339 132.559 606.408 132.651 607.489 132.848C608.57 133.045 609.61 133.352 610.616 133.822C611.116 134.031 611.622 134.293 612.075 134.56C612.302 134.693 612.528 134.827 612.761 135.012" stroke="#2C1C28" stroke-width="1.1923" stroke-miterlimit="10" stroke-linecap="round" stroke-linejoin="round"/>
<path d="M650.638 172.611C655.276 174.793 659.974 168.974 661.23 159.832C662.433 150.696 660.161 141.736 655.522 139.554" stroke="#CC2818" stroke-width="1.1923" stroke-miterlimit="10" stroke-linecap="round" stroke-linejoin="round"/>
<path d="M644.127 139.451C644.127 139.451 651.64 139.405 656.673 139.426C662.056 123.627 686.043 129.79 688.728 131.079" stroke="#CC2818" stroke-width="1.1923" stroke-miterlimit="10" stroke-linecap="round" stroke-linejoin="round"/>
<path fill-rule="evenodd" clip-rule="evenodd" d="M603.449 72.5128C607.716 75.1601 600.569 86.072 591.319 89.0646C581.401 92.2376 572.253 89.9768 572.227 85.0024C572.286 77.4769 591.729 65.2442 603.449 72.5128Z" fill="black"/>
<path fill-rule="evenodd" clip-rule="evenodd" d="M603.857 83.7451L599.892 51.5709L575.62 54.7062L574.154 89.9229C574.154 89.9229 574.102 90.4052 574.131 90.6667C574.242 92.1369 577.334 92.7975 581.809 92.5623L585.606 106.17L587.451 91.879C588.073 91.7566 588.747 91.6284 589.421 91.5001C597.642 89.7344 604.213 86.4587 604.014 84.2041C603.996 84.0472 603.979 83.8903 603.857 83.7451Z" fill="#E99670"/>
<path fill-rule="evenodd" clip-rule="evenodd" d="M602.339 71.5777C605.001 73.1335 607.15 80.0417 591.511 88.4076C589.344 88.9145 588.247 90.9432 587.377 95.0116L585.594 105.589L582.618 95.5433C582.618 95.5433 581.984 93.655 581.286 92.6211C580.338 91.2444 579.315 90.6174 579.315 90.6174C579.315 90.6174 573.717 88.3834 572.984 86.5592C571.599 83.1663 573.678 80.9219 574.862 79.6776C574.874 79.3057 574.885 78.9337 574.897 78.5618C573.561 79.3994 571.551 81.3184 570.49 85.0905C567.455 92.0483 569.117 102.188 569.117 102.188L574.781 98.8546L585.711 106.635L597.176 95.982C597.176 95.982 600.332 96.7413 604.807 97.9357C608.396 94.0401 611.798 87.9944 612.108 82.7176L603.902 72.3031L602.385 71.5195L602.339 71.5777Z" fill="#D3D8DC"/>
<path d="M602.577 71.8161C603.501 72.5071 604.077 73.3959 604.211 74.5987C604.696 78.9394 599.11 85.3351 591.557 88.3498C589.884 89.0133 588.6 90.3216 588.049 92.0246C587.052 94.9424 585.968 99.9349 585.716 106.211C584.102 99.8256 582.441 91.1156 577.954 89.8166C577.135 89.5905 576.309 89.312 575.617 88.8069C574.292 87.843 573.245 86.5303 573.093 85.1706" stroke="#2A1C28" stroke-width="1.1923" stroke-miterlimit="10" stroke-linecap="round" stroke-linejoin="round"/>
<path fill-rule="evenodd" clip-rule="evenodd" d="M569.065 102.194L583.165 97.1237C583.165 97.1237 581.518 92.3304 579.983 90.4369C578.453 88.5957 572.889 92.818 569.065 102.194Z" fill="#2A1C28"/>
<path fill-rule="evenodd" clip-rule="evenodd" d="M604.702 97.9474L586.763 97.5688C586.908 97.4467 586.701 90.8511 590.122 88.7745C592.155 87.5413 600.991 92.2198 604.702 97.9474Z" fill="#2A1C28"/>
<path fill-rule="evenodd" clip-rule="evenodd" d="M574.366 85.6639C595.437 75.685 592.94 59.02 592.94 59.02L575.185 65.0278L574.366 85.6639Z" fill="#C87149"/>
<path fill-rule="evenodd" clip-rule="evenodd" d="M574.783 73.7633C576.58 74.7437 578.607 75.1699 580.646 75.0468C582.686 74.9238 584.651 74.3301 586.362 73.206C591.166 70.0328 597.434 63.8389 598.515 52.4652C606.717 52.7253 609.066 39.8035 603.649 37.9608C600.292 36.8628 596.992 39.9507 595.598 42.6251C595.524 42.7544 595.391 43.0638 595.368 43.1793C593.72 36.9741 598.927 28.5065 594.414 25.9794C570.57 12.6583 561.398 30.344 559.345 33.7993C559.379 38.1007 560.193 42.4609 560.854 49.046C562.162 62.7654 568.982 70.7166 574.783 73.7633ZM595.547 42.639C595.584 42.5743 595.584 42.5743 595.547 42.639V42.639Z" fill="#E99670"/>
<path d="M574.541 60.3519C574.541 60.3519 579.991 59.73 582.403 55.1941" stroke="#2C1C28" stroke-width="1.1923" stroke-miterlimit="10" stroke-linecap="round" stroke-linejoin="round"/>
<path d="M567.272 38.2273C564.179 38.0935 560.564 40.2311 560.044 41.5196" stroke="#2C1C28" stroke-width="1.1923" stroke-miterlimit="10" stroke-linecap="round" stroke-linejoin="round"/>
<path d="M584.971 35.1182C582.653 34.2263 578.356 33.8773 574.376 36.2786" stroke="#2C1C28" stroke-width="1.1923" stroke-miterlimit="10" stroke-linecap="round" stroke-linejoin="round"/>
<path d="M570.639 43.1427C570.639 43.1427 571.413 45.7676 570.327 50.7584C569.332 55.2875 572.413 56.5706 576.581 54.0628" stroke="#2C1C28" stroke-width="1.1923" stroke-miterlimit="10" stroke-linecap="round" stroke-linejoin="round"/>
<path fill-rule="evenodd" clip-rule="evenodd" d="M580.589 40.0308C579.814 40.1889 579.396 41.4495 579.707 42.7828C580.019 44.1162 580.92 45.0148 581.695 44.8568C582.47 44.6987 582.888 43.4381 582.577 42.1047C582.266 40.7714 581.364 39.8727 580.589 40.0308Z" fill="#2C1C28"/>
<path fill-rule="evenodd" clip-rule="evenodd" d="M565.083 43.5755C564.307 43.7335 563.889 44.9942 564.2 46.3275C564.512 47.6609 565.413 48.5595 566.188 48.4014C566.963 48.2434 567.381 46.9828 567.07 45.6494C566.759 44.316 565.858 43.4174 565.083 43.5755Z" fill="#2C1C28"/>
<path fill-rule="evenodd" clip-rule="evenodd" d="M555.831 35.3095C560.424 48.6732 559.4 36.7857 559.4 36.7857C562.323 37.8936 571.398 32.1848 578.316 25.9761C585.184 19.7814 589.976 17.7573 592.041 28.2679C593.441 35.3596 600.209 11.8945 592.897 14.2823C591.204 -0.641125 575.725 12.5541 575.725 12.5541C575.725 12.5541 569.334 7.15905 562.354 8.96481C555.831 10.6453 552.19 17.2644 554.751 23.219C549.902 24.44 546.425 26.4852 555.831 35.3095Z" fill="#951800"/>
<path fill-rule="evenodd" clip-rule="evenodd" d="M560.762 36.5759C563.78 36.8391 569.655 33.5904 578.424 26.7651C585.763 21.0958 589.947 23.2218 592.367 33.635C592.92 36.048 594.101 41.9446 594.753 45.3128C595.215 42.6214 597.13 39.2585 601.599 37.6504C597.917 31.7852 603.821 10.7398 592.846 14.2961C592.622 12.2842 592.366 11.1538 591.732 9.63631C591.07 8.61731 586.171 3.68624 579.938 18.1645C575.514 28.491 566.922 35.759 560.762 36.5759ZM555.831 35.3094C557.47 42.2807 560.62 47.2005 560.62 47.2005L560 36.7847C557.641 36.3406 556.44 35.7423 555.831 35.3094Z" fill="#5F1001"/>
<path fill-rule="evenodd" clip-rule="evenodd" d="M517.889 98.7868C517.889 98.7868 517.117 101.867 517.074 104.206C516.811 111.39 518.234 117.32 518.385 118.217L521.386 106.921L517.889 98.7868Z" fill="#EC957E"/>
<path fill-rule="evenodd" clip-rule="evenodd" d="M551.578 157.792C550.4 172.69 536.841 183.49 532.193 186.395C524.784 191.84 514.281 191.846 506.904 185.769C502.77 182.375 500.372 177.721 499.773 172.815C498.639 167.208 496.413 150.001 508.106 139.307C514.001 133.929 518.952 134.188 518.952 134.188L546.479 143.951C546.423 143.906 552.108 150.73 551.578 157.792Z" fill="#ED5C18"/>
<path fill-rule="evenodd" clip-rule="evenodd" d="M533.965 132.764C542.141 135.098 547.48 141.555 545.88 147.214C544.274 152.823 536.356 155.534 528.13 153.206C519.953 150.872 514.614 144.415 516.215 138.756C517.821 133.147 525.738 130.436 533.965 132.764Z" fill="#CC2818"/>
<path fill-rule="evenodd" clip-rule="evenodd" d="M546.79 133.107L544.603 144.413C544.614 144.97 544.525 145.538 544.336 146.118C542.919 151.147 535.826 153.513 528.49 151.44C521.205 149.362 516.401 143.606 517.868 138.571C518.079 137.736 518.508 137.028 519.036 136.309L525.923 123.007L546.79 133.107Z" fill="#E99670"/>
<path fill-rule="evenodd" clip-rule="evenodd" d="M544.653 144.408C544.653 144.865 544.598 145.277 544.492 145.695C540.694 145.764 536.405 144.162 532.844 140.907C527.417 135.931 525.609 128.826 528.229 124.119L546.84 133.102L544.653 144.408Z" fill="#C87149"/>
<path fill-rule="evenodd" clip-rule="evenodd" d="M537.171 120.583C537.171 120.583 553.578 131.638 543.935 136.623C537.026 140.185 521.684 131.396 519.216 119.29C517.104 109.022 537.171 120.583 537.171 120.583Z" fill="#EC957E"/>
<path fill-rule="evenodd" clip-rule="evenodd" d="M546.973 132.021C543.928 133.833 538.699 134.722 530.109 130.506C518.083 124.593 534.723 125.931 544.492 127.072C545.791 128.703 546.794 130.418 546.973 132.021Z" fill="#C87149"/>
<path fill-rule="evenodd" clip-rule="evenodd" d="M530.398 82.6737L513.381 84.3213C512.529 84.4164 512.095 85.0738 512.435 85.8477L530.76 129.063C531.101 129.837 532.025 130.393 532.877 130.298L549.895 128.65C550.747 128.555 551.181 127.898 550.841 127.124L532.515 83.9088C532.175 83.1349 531.25 82.5785 530.398 82.6737Z" fill="#2C1C28"/>
<path fill-rule="evenodd" clip-rule="evenodd" d="M541.818 125.392C548.022 125.511 547.723 120.114 544.978 119.609C548.937 118.71 548.973 114.495 543.286 113.1C535.461 111.184 526.362 111.947 526.362 111.947L526.806 110.019C526.806 110.019 530.209 110.959 532.342 111.431C537.227 112.458 539.217 107.111 530.254 103.19C525.185 100.965 521.276 100.489 519.391 104.962C517.377 109.652 514.749 118.826 525.074 129.038C528.236 136.449 538.458 131.653 540.267 130.132C542.911 127.908 542.609 126.572 541.818 125.392Z" fill="#E99670"/>
<path d="M545.796 119.67C545.796 119.67 530.58 117.006 521.728 120.888" stroke="#2C1C28" stroke-width="1.1923" stroke-miterlimit="10" stroke-linecap="round" stroke-linejoin="round"/>
<path d="M541.79 125.598C537.591 125.712 529.879 126.168 525.503 128.788" stroke="#2C1C28" stroke-width="1.1923" stroke-miterlimit="10" stroke-linecap="round" stroke-linejoin="round"/>
<path d="M532.147 111.503C532.298 111.486 521.889 111.431 519.129 114.886" stroke="#2C1C28" stroke-width="1.1923" stroke-miterlimit="10" stroke-linecap="round" stroke-linejoin="round"/>
<path d="M531.78 111.392L523.046 109.07" stroke="#2C1C28" stroke-width="1.1923" stroke-miterlimit="10" stroke-linecap="round" stroke-linejoin="round"/>
<path d="M547.884 144.095C550.963 152.1 553.426 170.82 538.647 181.658" stroke="#CC2818" stroke-width="1.19463" stroke-linecap="round"/>
<path fill-rule="evenodd" clip-rule="evenodd" d="M179.545 146.257C190.769 148.227 198.267 158.916 196.298 170.14C194.328 181.364 183.639 188.862 172.415 186.892C161.191 184.923 153.693 174.234 155.662 163.01C157.632 151.786 168.321 144.288 179.545 146.257Z" fill="#7581F1"/>
<path fill-rule="evenodd" clip-rule="evenodd" d="M155.676 170.564C153.222 161.35 148.91 117.85 149.557 113.25C150.825 103.884 159.529 97.3236 168.998 98.6102C178.467 99.8968 185.15 108.515 183.881 117.88C182.962 124.95 196.897 151.766 196.62 165.858C196.221 186.142 157.013 175.459 155.676 170.564Z" fill="#54B4A6"/>
<path fill-rule="evenodd" clip-rule="evenodd" d="M179.545 146.257C190.769 148.227 198.267 158.916 196.298 170.14C194.328 181.364 183.639 188.862 172.415 186.892C161.191 184.923 153.693 174.234 155.662 163.01C157.632 151.786 168.321 144.288 179.545 146.257Z" fill="#7581F1"/>
<path fill-rule="evenodd" clip-rule="evenodd" d="M211.948 182.903C193.609 214.768 161.822 183.159 159.66 179.298C154.48 166.391 159.202 170.005 159.708 162.542C159.716 161.579 159.838 160.583 160.002 159.647C161.762 149.618 170.997 142.776 180.988 143.833C185.67 144.012 195.396 144.754 201.865 147.871C202.263 148.048 202.66 148.225 203.006 148.392C214.646 154.399 219.273 170.155 211.948 182.903Z" fill="#54B4A6"/>
<path fill-rule="evenodd" clip-rule="evenodd" d="M194.531 163.724C187.207 162.117 180.386 165.58 179.285 171.547C178.194 177.462 183.276 183.603 190.6 185.209C197.924 186.816 204.745 183.352 205.846 177.386C206.937 171.471 201.907 165.339 194.531 163.724Z" fill="#54B4A6"/>
<path d="M179.294 171.495C178.203 177.41 183.285 183.551 190.609 185.157C197.933 186.764 204.754 183.301 205.855 177.334" stroke="#39A08F" stroke-width="1.27201" stroke-miterlimit="10" stroke-linecap="round" stroke-linejoin="round"/>
<path fill-rule="evenodd" clip-rule="evenodd" d="M197.972 153.883C190.648 152.277 183.827 155.74 182.726 161.706C181.635 167.621 186.717 173.762 194.041 175.368C201.365 176.975 208.186 173.512 209.287 167.545C210.317 161.673 205.287 155.542 197.972 153.883Z" fill="#39A08F"/>
<path fill-rule="evenodd" clip-rule="evenodd" d="M207.935 167.308C206.944 172.651 200.829 175.756 194.223 174.329C187.627 172.85 183.077 167.338 184.059 162.047C184.141 161.579 184.266 161.173 184.391 160.766L187.27 136.418L205.991 131.99L207.883 164.246C208.092 165.193 208.118 166.269 207.935 167.308Z" fill="#DE7C62"/>
<path fill-rule="evenodd" clip-rule="evenodd" d="M199.562 145.431C195.195 148.95 189.894 150.162 185.828 148.913L187.331 136.376L205.835 131.963C206.457 136.357 204.182 141.689 199.562 145.431Z" fill="#C26147"/>
<path fill-rule="evenodd" clip-rule="evenodd" d="M196.618 125.578C196.618 125.578 180.142 135.221 189.16 140.606C195.606 144.469 210.91 136.924 214.062 125.372C216.626 115.645 196.618 125.578 196.618 125.578Z" fill="#DE7C62"/>
<path fill-rule="evenodd" clip-rule="evenodd" d="M202.795 135.554C194.299 139.098 189.304 137.953 186.485 136.013C186.758 134.454 187.787 132.867 189.17 131.395C198.628 130.912 214.755 130.582 202.795 135.554Z" fill="#C26147"/>
<path fill-rule="evenodd" clip-rule="evenodd" d="M205.427 89.4158L221.737 92.0099C222.568 92.1558 222.927 92.8614 222.539 93.5433L202.295 134.127C201.95 134.87 200.958 135.338 200.178 135.202L183.868 132.608C183.037 132.462 182.679 131.756 183.066 131.074L203.353 90.5517C203.646 89.7996 204.647 89.2791 205.427 89.4158Z" fill="#2C1C28"/>
<path fill-rule="evenodd" clip-rule="evenodd" d="M191.836 129.935C185.828 129.684 186.47 124.494 189.144 124.213C185.372 123.123 185.606 119.04 191.14 118.029C198.776 116.637 207.499 117.9 207.499 117.9L207.195 115.972C207.195 115.972 203.858 116.672 201.765 117.001C196.989 117.663 195.395 112.402 204.261 109.19C209.289 107.394 213.039 107.088 214.614 111.542C216.257 116.223 218.27 125.2 207.653 134.424C204.133 141.359 194.611 136.1 192.959 134.524C190.619 132.292 191.003 131.021 191.836 129.935Z" fill="#DE7C62"/>
<path fill-rule="evenodd" clip-rule="evenodd" d="M216.494 105.713C216.494 105.713 217.032 108.753 216.961 110.99C216.763 117.919 215.075 123.568 214.877 124.39L212.638 113.338L216.494 105.713Z" fill="#DE7C62"/>
<path d="M188.346 124.18C188.346 124.18 203.149 122.546 211.456 126.789" stroke="#2C1C28" stroke-width="1.27201" stroke-miterlimit="10" stroke-linecap="round" stroke-linejoin="round"/>
<path d="M191.852 130.152C195.917 130.491 203.307 131.412 207.368 134.214" stroke="#2C1C28" stroke-width="1.27201" stroke-miterlimit="10" stroke-linecap="round" stroke-linejoin="round"/>
<path d="M202.016 117.098C201.86 117.071 211.881 117.651 214.367 121.194" stroke="#2C1C28" stroke-width="1.27201" stroke-miterlimit="10" stroke-linecap="round" stroke-linejoin="round"/>
<path d="M202.346 117.049L210.895 115.335" stroke="#2C1C28" stroke-width="1.27201" stroke-miterlimit="10" stroke-linecap="round" stroke-linejoin="round"/>
<path fill-rule="evenodd" clip-rule="evenodd" d="M175.413 130.428C175.652 130.898 175.891 131.368 176.138 131.787C178.006 135.489 178.212 139.81 176.584 143.595C175.071 147.026 172.328 151.365 167.171 156.031C168.857 164.736 169.472 181.073 158.893 185.805C154.827 187.609 113.189 183.142 99.8532 177.642C91.9102 174.374 92.4665 168.151 98.3231 159.805C101.457 155.373 98.1681 126.194 96.6251 113.925C92.4289 110.671 90.1682 105.239 91.1529 99.6275C92.5753 91.5212 100.271 86.1227 108.378 87.5451C109.001 87.6545 109.564 87.8068 110.126 87.959C137.771 92.8097 158.385 97.1232 169.007 98.5584C178.476 99.845 185.159 108.463 183.891 117.828C183.132 123.373 179.875 127.89 175.413 130.428Z" fill="#54B4A6"/>
<path d="M154.221 120.549C154.849 124.302 155.209 127.739 155.068 130.071C154.617 137.223 150.792 151.389 143.113 178.055" stroke="#39A08F" stroke-width="1.27201" stroke-miterlimit="10" stroke-linecap="round" stroke-linejoin="round"/>
<path d="M158.884 185.857C169.411 181.116 168.796 164.779 167.162 156.083C172.276 151.356 175.072 147.026 176.575 143.647C178.255 139.871 177.997 135.541 176.129 131.839C174.381 128.372 171.396 122.492 166.677 113.362" stroke="#39A08F" stroke-width="1.27201" stroke-miterlimit="10" stroke-linecap="round" stroke-linejoin="round"/>
<path fill-rule="evenodd" clip-rule="evenodd" d="M116.718 112.361C107.553 125.215 99.1106 133.643 94.6758 155.254C91.9961 168.389 98.5069 172.799 90.9071 186.195C82.3738 201.249 42.1389 193.974 47.9129 169.92C54.0918 144.169 86.5472 102.675 93.5251 94.0439C96.705 89.3528 102.479 86.67 108.402 87.7094C116.509 89.1318 121.907 96.828 120.485 104.934C119.931 107.783 118.574 110.33 116.718 112.361Z" fill="#54B4A6"/>
<path d="M110.791 120.802C99.541 136.076 96.8579 142.514 94.5192 154.316" stroke="#39A08F" stroke-width="1.27201" stroke-miterlimit="10" stroke-linecap="round" stroke-linejoin="round"/>
<path fill-rule="evenodd" clip-rule="evenodd" d="M49.0982 197.66C49.0982 197.66 49.0681 198.137 49.0225 198.397C48.6852 200.319 55.1149 203.054 63.377 204.504C71.6391 205.954 78.6159 205.571 78.9533 203.648C78.9806 203.493 84.3569 188.421 84.3569 188.421L84.305 188.411C84.3141 188.359 84.3141 188.359 84.3232 188.308C84.6606 186.385 78.2309 183.65 69.9687 182.2C61.7066 180.75 54.7298 181.133 54.3925 183.056C54.3743 183.16 54.408 183.273 54.3897 183.377L49.0982 197.66Z" fill="#54B4A6"/>
<path d="M84.2959 188.463L84.244 188.454C84.2531 188.402 84.2531 188.402 84.2622 188.35C84.5996 186.427 78.1699 183.692 69.9077 182.243C61.6456 180.793 54.6688 181.176 54.3315 183.098C54.3133 183.202 54.347 183.315 54.3287 183.419" stroke="#39A08F" stroke-width="1.27201" stroke-miterlimit="10" stroke-linecap="round" stroke-linejoin="round"/>
<path fill-rule="evenodd" clip-rule="evenodd" d="M64.4193 198.259C71.9019 199.572 77.7783 202.103 77.4683 203.87C77.1583 205.637 70.8233 206.025 63.2886 204.703C55.806 203.39 49.9296 200.859 50.2396 199.092C50.5496 197.325 56.8846 196.937 64.4193 198.259Z" fill="#39A08F"/>
<path fill-rule="evenodd" clip-rule="evenodd" d="M51.5795 244.266C47.7123 246.159 37.8556 248.607 31.6755 251.165L29.5495 252.292C28.3644 252.941 26.9277 252.582 26.3734 251.467C25.8529 250.465 26.2459 249.141 27.2751 248.465C27.2751 248.465 33.4178 245.204 38.2989 239.365L25.0665 236.936L24.6235 237.019C24.5104 237.053 24.3974 237.086 24.2324 237.111C24.0063 237.179 23.7191 237.289 23.493 237.356C23.0317 237.543 22.5522 237.834 22.1247 238.134C21.6971 238.434 21.3032 238.847 20.9614 239.269L20.821 239.458L20.6195 239.691L20.2594 240.217L19.4963 241.208L10.7196 254.291C9.81616 255.471 8.14785 255.821 6.93996 255.074C5.83598 254.344 5.60538 252.911 6.29188 251.746L14.1451 238.126L14.7614 237.056L15.0695 236.521L15.2282 236.227L15.4479 235.891C16.0459 234.925 16.7817 234.09 17.6213 233.273C18.4518 232.508 19.3772 231.813 20.3973 231.189C20.9288 230.907 21.4083 230.617 21.9826 230.396C22.2698 230.286 22.505 230.166 22.7922 230.056L23.5315 229.811L50.7132 220.814C50.7742 220.772 50.7834 220.72 50.7834 220.72C50.3677 220.647 58.4649 219.068 58.6481 218.939C70.4452 235.043 51.5886 244.214 51.5795 244.266Z" fill="#DE7C62"/>
<path fill-rule="evenodd" clip-rule="evenodd" d="M74.6323 203.854L61.5485 234.767L42.582 231.439L52.2271 199.976L52.2362 199.924C52.4915 198.469 57.6805 198.201 63.8641 199.286C70.0997 200.381 74.8876 202.399 74.6323 203.854Z" fill="#DE7C62"/>
<path d="M2.07117 245.274L13.3621 234.347L14.2628 233.487L14.7086 233.083L14.9621 232.86L15.2766 232.594C16.1071 231.829 17.0753 231.195 18.0772 230.675C19.0791 230.154 20.1667 229.756 21.34 229.48C21.8961 229.363 22.4522 229.246 23.0602 229.139C23.3383 229.08 23.6592 229.083 23.9281 229.077L24.7349 229.058L54.3139 227.767C59.3899 227.532 58.6093 238.697 48.1426 242.485L24.2315 236.2L23.7547 236.17C23.6508 236.152 23.4858 236.177 23.3818 236.158C23.1129 236.165 22.844 236.171 22.627 236.187C22.132 236.26 21.5759 236.377 21.0626 236.555C20.5494 236.733 20.079 236.971 19.6423 237.323L19.459 237.452L19.2147 237.623L18.717 238.018L17.7305 238.755L5.7085 248.965C4.52973 249.883 2.78759 249.738 1.90333 248.673C0.957989 247.65 1.10937 246.177 2.07117 245.274Z" fill="#DE7C62"/>
<path d="M39.8394 239.742C33.1452 238.514 24.9533 236.969 24.9533 236.969L24.5103 237.052C24.3972 237.086 24.2842 237.12 24.1192 237.144C23.8931 237.212 23.6059 237.322 23.3798 237.39C22.9185 237.577 22.439 237.867 22.0114 238.167C21.5839 238.467 21.19 238.88 20.8481 239.302L20.7077 239.492L20.5063 239.724L20.1462 240.25L19.3831 241.241L10.6064 254.324C9.70294 255.504 8.03463 255.854 6.82673 255.107C5.72276 254.378 5.49216 252.944 6.17865 251.779L14.0319 238.16L14.6482 237.089L14.9563 236.554L15.1149 236.261L15.3347 235.924C15.9327 234.958 16.6684 234.123 17.5081 233.306C18.3386 232.541 19.2639 231.847 20.2841 231.222C20.8156 230.941 21.2951 230.65 21.8694 230.429C22.1566 230.319 22.3918 230.2 22.679 230.089L23.4183 229.844" stroke="#2C1C28" stroke-width="1.27201" stroke-miterlimit="10" stroke-linecap="round" stroke-linejoin="round"/>
<path fill-rule="evenodd" clip-rule="evenodd" d="M143.338 85.806C152.69 88.6788 159.799 93.033 159.136 95.5947C158.524 98.1655 150.425 97.9228 141.012 95.0928C131.661 92.22 124.551 87.8658 125.215 85.3041C125.836 82.6814 133.987 82.9332 143.338 85.806Z" fill="black"/>
<path d="M137.914 51.6978C136.521 52.3104 135.866 53.9094 136.393 55.1802C136.919 56.451 138.537 57.0026 139.878 56.3809" stroke="black" stroke-width="1.27201" stroke-miterlimit="10" stroke-linecap="round" stroke-linejoin="round"/>
<path fill-rule="evenodd" clip-rule="evenodd" d="M169.699 62.2567C175.443 50.8915 157.396 56.6698 150.05 60.6836C142.704 64.6973 141.67 76.9962 147.742 88.1849C153.813 99.3736 174.955 111.975 178.334 104.319C187.332 83.5621 161.866 77.5939 169.699 62.2567Z" fill="#4F2827"/>
<path fill-rule="evenodd" clip-rule="evenodd" d="M162.328 75.2647L156.852 93.9613C156.876 94.1263 156.858 94.2303 156.831 94.3861C156.292 96.5412 149.537 96.2667 141.675 93.7622C133.864 91.2668 127.937 87.4952 128.476 85.3401C128.513 85.1322 128.653 84.9426 128.845 84.7621L142.08 58.4818L162.328 75.2647Z" fill="#DE7C62"/>
<path fill-rule="evenodd" clip-rule="evenodd" d="M158.981 87.3186C142.876 78.9757 145.299 62.4214 145.299 62.4214L162.383 74.9532L158.981 87.3186Z" fill="#C26147"/>
<path fill-rule="evenodd" clip-rule="evenodd" d="M140.746 60.2833C101.885 63.802 145.596 22.569 157.522 23.5903C157.522 23.5903 174.997 26.8709 177.866 38.3011C178.24 42.2767 177.64 44.4747 177.942 50.6875C178.486 60.1029 174.367 76.2524 163.07 77.7518C156.497 78.5803 145.388 75.3455 140.746 60.2833Z" fill="#DE7C62"/>
<path d="M156.827 60.2129C156.827 60.2129 160.324 67.1469 167.156 65.4533" stroke="#BD4040" stroke-width="1.27201" stroke-miterlimit="10" stroke-linecap="round" stroke-linejoin="round"/>
<path fill-rule="evenodd" clip-rule="evenodd" d="M158.284 62.2892C158.284 62.2892 160.025 60.6127 162.81 61.5299C164.531 62.0997 164.746 63.3159 164.746 63.3159C164.746 63.3159 167.835 62.1974 167.624 65.5349C165.486 67.0344 159.745 64.9558 158.284 62.2892Z" fill="#BD4040"/>
<path d="M169.467 43.7367C169.467 43.7367 173.075 41.7987 177.491 44.716" stroke="#2C1C28" stroke-width="1.27201" stroke-miterlimit="10" stroke-linecap="round" stroke-linejoin="round"/>
<path d="M172.124 48.4346L174.892 47.3134" stroke="#2C1C28" stroke-width="1.27201" stroke-miterlimit="10" stroke-linecap="round" stroke-linejoin="round"/>
<path d="M156.75 46.0046L159.784 45.1979" stroke="#2C1C28" stroke-width="1.27201" stroke-miterlimit="10" stroke-linecap="round" stroke-linejoin="round"/>
<path d="M152.789 42.6314C154.515 41.6487 159.354 39.7125 163.932 42.9262" stroke="#2C1C28" stroke-width="1.27201" stroke-miterlimit="10" stroke-linecap="round" stroke-linejoin="round"/>
<path d="M167.334 46.7373C167.334 46.7373 165.889 50.3938 168.765 53.8444C171.598 57.234 169.524 61.4229 165.009 59.9879" stroke="#2C1C28" stroke-width="1.27201" stroke-miterlimit="10" stroke-linecap="round" stroke-linejoin="round"/>
<path d="M141.217 53.938L135.874 49.8938" stroke="#2C1C28" stroke-width="1.27201" stroke-miterlimit="10" stroke-linecap="round" stroke-linejoin="round"/>
<path fill-rule="evenodd" clip-rule="evenodd" d="M156.569 45.8125C157.376 45.7934 157.93 46.9083 157.858 48.2347C157.734 49.552 157.005 50.656 156.207 50.6232C155.4 50.6423 154.846 49.5273 154.918 48.2009C155.042 46.8836 155.762 45.8316 156.569 45.8125Z" fill="#2C1C28"/>
<path fill-rule="evenodd" clip-rule="evenodd" d="M172.546 47.8657C173.352 47.8466 173.907 48.9615 173.835 50.288C173.711 51.6053 172.981 52.7092 172.184 52.6764C171.377 52.6955 170.823 51.5806 170.895 50.2541C170.958 48.9797 171.739 47.8848 172.546 47.8657Z" fill="#2C1C28"/>
<path fill-rule="evenodd" clip-rule="evenodd" d="M104.102 87.491C104.102 87.491 112.416 88.9498 119.068 90.1169C129.386 97.5516 126.643 114.103 118.932 117.142L147.096 122.084C153.717 114.569 154.998 107.884 153.58 102.225C159.11 109.784 158.359 116.508 148.465 122.217C190.321 117.51 157.088 92.6104 136.203 83.4287C133.518 81.9399 131.626 81.1258 131.626 81.1258C131.626 81.1258 145.838 73.3891 140.718 59.5284C137.706 60.821 134.397 58.3121 133.586 56.8307C131.672 53.3883 132.606 48.6779 135.731 47.3515C138.856 46.0252 141.847 48.2105 143.432 50.4705C143.389 50.4094 143.389 50.4094 143.432 50.4705C143.518 50.5926 143.689 50.837 143.723 50.95C143.099 40.7706 162.469 38.4383 161.461 28.6199C161.461 28.6199 172.515 29.1134 177.722 37.9009C178.376 34.4804 176.561 25.5919 163.195 20.5684C147.615 14.728 130.925 21.0124 128.744 37.7163C128.431 38.8932 128.539 40.412 127.135 42.3081C123.097 47.9201 76.2141 67.5463 104.102 87.491ZM148.291 122.294C148.352 122.251 148.352 122.251 148.413 122.208C148.352 122.251 148.3 122.242 148.239 122.285L148.291 122.294Z" fill="#4F2827"/>
<path fill-rule="evenodd" clip-rule="evenodd" d="M109.006 500.263C120.085 501.582 133.644 499.102 136.704 497.467C138.55 496.517 141.294 495.515 141.821 490.714C141.979 489.395 144.67 487.285 145.883 486.44C147.941 485.016 144.67 466.868 140.133 462.278C136.598 461.645 127.577 477.472 121.721 481.218C107.054 484.752 104.575 489.659 104.575 489.659C102.781 492.56 102.623 499.524 109.006 500.263Z" fill="#2C1A28"/>
<path fill-rule="evenodd" clip-rule="evenodd" d="M109.006 496.992C120.085 498.311 133.644 495.832 136.704 494.196C138.55 493.246 141.294 492.244 141.821 487.443C141.979 486.124 144.67 484.014 145.883 483.17C147.941 481.745 144.67 463.597 140.133 459.007C136.598 458.374 127.577 474.201 121.721 477.947C107.054 481.482 104.575 486.388 104.575 486.388C102.781 489.29 102.623 496.254 109.006 496.992Z" fill="#54B4A6"/>
<path fill-rule="evenodd" clip-rule="evenodd" d="M215.417 500.791C202.544 501.002 198.429 499.313 193.365 496.939C187.773 494.354 191.149 488.604 185.926 487.549C180.598 486.493 180.017 484.7 180.017 484.7C178.751 479.002 181.864 479.688 185.24 475.678C214.784 494.618 216.736 480.11 218.266 484.752C218.266 484.752 233.46 486.23 239.422 493.563C240.424 494.776 239.896 496.253 239.527 497.572C241.11 497.414 233.249 500.474 215.417 500.791Z" fill="#2C1A28"/>
<path fill-rule="evenodd" clip-rule="evenodd" d="M215.417 497.256C202.544 497.467 198.429 495.779 193.365 493.405C187.772 490.82 191.149 485.069 185.926 484.014C180.597 482.959 180.017 481.165 180.017 481.165C178.751 475.467 180.386 467.29 183.815 463.333C213.359 482.273 216.789 476.628 218.266 481.271C218.266 481.271 235.887 482.959 239.58 494.038C241.11 493.932 233.249 496.939 215.417 497.256Z" fill="#54B4A6"/>
<path fill-rule="evenodd" clip-rule="evenodd" d="M131.217 306.381C130.373 324.477 134.435 321.733 136.704 345.368C138.867 368.001 140.819 423.132 141.03 454.048C140.608 456.316 141.557 460.853 141.557 460.853C141.557 460.853 138.234 465.127 138.075 467.395C136.968 483.275 135.174 485.702 108.69 483.433C113.28 478.105 121.879 460.273 119.822 449.247C110.325 364.203 106.474 351.594 106.58 327.062C106.685 298.257 93.8124 265.864 89.2753 241.068C84.2106 213.687 106.738 184.671 105.788 191.687C116.814 190.421 105.999 217.064 114.282 217.538C115.232 217.644 132.905 216.483 132.905 216.483C132.905 216.483 134.488 235.37 131.217 306.381Z" fill="#DE7C62"/>
<path fill-rule="evenodd" clip-rule="evenodd" d="M199.326 479.74C190.938 466.076 186.401 465.812 183.235 465.021C177.59 432.997 168.833 380.293 164.507 358.874C159.811 335.608 165.72 332.179 159.547 314.611C135.385 245.658 133.591 225.452 133.591 225.452C133.591 225.452 146.886 213.792 147.783 213.634C155.907 212.421 148.943 197.438 160.339 197.754C158.018 192.479 176.482 210.099 181.02 247.715C190.569 326.745 207.081 455.947 207.081 455.947C207.081 455.947 211.302 465.865 217.422 472.776C220.851 476.628 224.069 481.323 226.865 483.591C210.511 487.865 202.228 484.383 199.326 479.74Z" fill="#DE7C62"/>
<path fill-rule="evenodd" clip-rule="evenodd" d="M140.502 426.719C130.637 427.089 121.774 423.501 116.551 420.811C116.023 416.326 115.496 412.159 115.021 408.202C122.776 405.458 137.337 407.78 137.337 407.78C137.337 407.78 138.498 408.94 140.028 410.681C140.239 416.115 140.397 421.497 140.502 426.719C140.555 426.719 140.502 426.719 140.502 426.719Z" fill="#C26147"/>
<path fill-rule="evenodd" clip-rule="evenodd" d="M205.604 414.691C205.446 416.169 196.477 417.382 185.346 417.382C174.161 417.382 165.087 416.169 165.087 414.639H165.034L135.912 246.713L144.617 414.797H144.353C143.826 416.221 134.963 417.382 124.148 417.382C112.963 417.382 103.889 416.169 103.889 414.639C102.834 405.617 98.1384 357.239 96.7139 345.158C91.491 301.528 84.7909 245.816 84.7909 245.816C84.7909 245.816 83.6302 233.735 85.3712 223.711C86.057 219.807 86.9539 216.273 87.9563 213.054C89.3807 205.668 94.7619 197.069 98.6132 191.952V176.758V176.705C98.6132 174.067 112.013 172.854 128.579 173.909C145.145 175.017 158.545 178.024 158.545 180.609C158.545 180.767 158.492 180.873 158.44 181.031L159.547 194.273C178.962 204.349 183.605 232.205 183.657 232.258L205.763 414.639L205.604 414.691Z" fill="#FCC670"/>
<path d="M143.193 239.432L174.794 411.262" stroke="#D8912B" stroke-width="1.27201" stroke-miterlimit="10" stroke-linecap="round" stroke-linejoin="round"/>
<path d="M155.327 193.323C155.327 193.323 161.922 211.683 179.068 218.805" stroke="#D8912B" stroke-width="1.27201" stroke-miterlimit="10" stroke-linecap="round" stroke-linejoin="round"/>
<path d="M134.963 175.175V189.05L136.335 237.269C136.335 237.269 150.157 231.255 145.831 210.522C142.138 192.954 143.087 190.421 143.087 190.421" stroke="#D8912B" stroke-width="1.27201" stroke-miterlimit="10" stroke-linecap="round" stroke-linejoin="round"/>
<path d="M117.289 188.364C117.289 188.364 117.289 212.949 93.3374 220.704" stroke="#D8912B" stroke-width="1.27201" stroke-miterlimit="10" stroke-linecap="round" stroke-linejoin="round"/>
<path d="M106.791 174.225V188.522C102.939 193.64 97.5053 202.239 96.1336 209.625C95.1313 212.79 94.2344 216.378 93.5485 220.282C91.8603 230.306 92.9682 242.387 92.9682 242.387C92.9682 242.387 99.6683 298.098 104.891 341.728C106.527 355.551 111.486 407.622 112.594 416.907" stroke="#D8912B" stroke-width="1.27201" stroke-miterlimit="10" stroke-linecap="round" stroke-linejoin="round"/>
<path d="M98.3494 191.635V191.582C98.3494 188.892 112.119 187.625 129.107 188.733C146.094 189.841 159.864 192.954 159.864 195.644" stroke="#D8912B" stroke-width="1.27201" stroke-miterlimit="10" stroke-linecap="round" stroke-linejoin="round"/>
<path fill-rule="evenodd" clip-rule="evenodd" d="M136.176 237.797L144.775 237.48C144.775 237.48 145.409 241.807 143.562 247.821C141.927 253.149 137.917 258.056 137.917 258.056L135.965 246.713L136.176 237.797Z" fill="#D8912B"/>
</svg>
